<svg xmlns="http://www.w3.org/2000/svg" version="1.1" viewBox="0 0 652.0778629590636 977.8505663301471" width="652.0778629590636" height="977.8505663301471" class="excalidraw-svg">
  <!-- svg-source:excalidraw -->
  
  <defs>
    <style class="style-fonts">
      @font-face {
        font-family: "Virgil";
        src: url("https://excalidraw.com/Virgil.woff2");
      }
      @font-face {
        font-family: "Cascadia";
        src: url("https://excalidraw.com/Cascadia.woff2");
      }
      @font-face {
        font-family: "Assistant";
        src: url("https://excalidraw.com/Assistant-Regular.woff2");
      }
    </style>
    
  </defs>
  <g transform="translate(335.76773617100616 71.91309592136327) rotate(0 -16.607437364441665 114.8631593272568)" stroke="none"><path fill="#1e1e1e" d="M -0.32,8.34 Q -0.32,8.34 -5.64,8.33 -10.96,8.31 -17.36,8.22 -23.75,8.12 -30.97,7.88 -38.18,7.65 -44.56,7.99 -50.93,8.32 -56.99,9.53 -63.06,10.73 -69.02,12.83 -74.98,14.93 -80.84,17.88 -86.71,20.82 -92.53,24.44 -98.35,28.05 -103.54,32.08 -108.74,36.10 -113.23,40.36 -117.72,44.62 -121.52,48.97 -125.31,53.33 -128.30,57.64 -131.29,61.96 -133.70,66.36 -136.11,70.77 -138.07,75.40 -140.03,80.04 -141.62,85.06 -143.22,90.07 -144.26,95.32 -145.31,100.56 -145.88,105.99 -146.45,111.42 -146.71,116.84 -146.97,122.26 -146.92,127.34 -146.87,132.42 -146.28,137.10 -145.69,141.78 -144.37,146.35 -143.05,150.92 -141.17,155.63 -139.29,160.34 -137.16,164.78 -135.02,169.23 -132.73,173.38 -130.43,177.54 -127.86,181.53 -125.29,185.53 -122.58,189.06 -119.87,192.59 -114.19,198.38 -108.51,204.17 -99.97,210.64 -91.44,217.11 -84.54,221.41 -77.65,225.72 -72.02,228.18 -66.38,230.65 -61.32,232.23 -56.27,233.82 -51.46,234.82 -46.65,235.82 -41.84,236.37 -37.03,236.91 -31.79,237.16 -26.54,237.40 -20.81,237.33 -15.08,237.25 -9.31,236.51 -3.54,235.77 2.22,234.25 8.00,232.73 13.41,230.69 18.83,228.66 23.85,226.22 28.87,223.77 37.06,219.05 45.25,214.33 53.91,207.66 62.57,201.00 68.44,195.89 74.31,190.78 78.71,186.39 83.12,182.01 86.65,178.13 90.18,174.25 93.23,170.52 96.28,166.79 98.81,163.23 101.34,159.67 104.58,153.27 107.83,146.86 109.41,140.01 110.99,133.15 111.56,128.37 112.14,123.58 112.59,117.77 113.03,111.95 113.19,105.68 113.35,99.41 112.85,93.60 112.34,87.79 111.20,82.27 110.06,76.76 108.47,71.35 106.87,65.95 104.90,60.93 102.93,55.91 100.74,51.55 98.56,47.20 96.24,43.34 93.93,39.48 91.44,35.69 88.96,31.90 86.46,28.44 83.95,24.97 79.25,19.04 74.55,13.12 70.70,8.98 66.85,4.85 62.81,2.46 58.78,0.08 53.69,-1.18 48.60,-2.45 43.96,-3.21 39.32,-3.96 34.43,-4.25 29.53,-4.53 24.14,-4.55 18.75,-4.57 12.55,-4.07 6.35,-3.57 0.41,-2.22 -5.51,-0.87 -11.62,0.80 -17.73,2.49 -22.63,4.09 -27.52,5.69 -29.63,6.00 -31.73,6.31 -33.82,5.93 -35.92,5.56 -37.78,4.53 -39.65,3.51 -41.08,1.94 -42.52,0.37 -43.39,-1.56 -44.25,-3.51 -44.45,-5.63 -44.64,-7.74 -44.16,-9.81 -43.67,-11.88 -42.54,-13.69 -41.42,-15.50 -39.77,-16.85 -38.13,-18.20 -36.14,-18.96 -34.15,-19.71 -32.03,-19.80 -29.90,-19.88 -27.86,-19.28 -25.82,-18.68 -24.08,-17.45 -22.34,-16.23 -21.08,-14.52 -19.81,-12.81 -19.17,-10.78 -18.52,-8.75 -18.55,-6.63 -18.58,-4.50 -19.30,-2.49 -20.01,-0.49 -21.32,1.18 -22.63,2.85 -24.41,4.01 -26.19,5.18 -28.25,5.72 -30.31,6.26 -32.43,6.11 -34.55,5.96 -36.52,5.14 -38.48,4.32 -40.08,2.92 -41.68,1.52 -42.75,-0.31 -43.82,-2.15 -44.24,-4.24 -44.67,-6.32 -44.40,-8.43 -44.14,-10.54 -43.22,-12.46 -42.29,-14.38 -40.81,-15.90 -39.32,-17.42 -37.42,-18.39 -35.53,-19.35 -35.53,-19.35 -35.53,-19.35 -30.01,-21.08 -24.49,-22.82 -18.18,-24.49 -11.87,-26.17 -4.48,-27.79 2.90,-29.41 8.04,-30.15 13.19,-30.89 19.01,-30.83 24.84,-30.78 31.05,-30.45 37.26,-30.13 43.34,-29.19 49.42,-28.25 54.74,-26.85 60.05,-25.46 65.06,-23.43 70.07,-21.40 74.79,-18.14 79.51,-14.88 83.73,-10.25 87.95,-5.61 92.19,0.27 96.43,6.16 98.83,9.68 101.23,13.19 103.79,17.14 106.34,21.09 108.88,25.37 111.41,29.65 113.83,34.21 116.25,38.77 118.57,43.88 120.90,49.00 123.07,54.76 125.24,60.52 127.06,66.66 128.87,72.81 130.26,79.34 131.65,85.88 132.39,92.64 133.12,99.41 133.28,106.26 133.44,113.11 133.19,119.66 132.93,126.21 132.17,131.98 131.41,137.75 130.15,142.66 128.88,147.57 127.13,151.78 125.37,155.99 123.12,159.81 120.87,163.64 118.16,167.28 115.45,170.93 112.20,174.61 108.95,178.30 105.24,182.01 101.53,185.71 97.46,189.36 93.39,193.02 88.63,197.18 83.87,201.34 77.95,206.90 72.03,212.47 63.11,220.29 54.20,228.12 45.54,234.32 36.88,240.51 31.09,243.22 25.30,245.94 19.08,248.25 12.87,250.57 5.93,252.51 -0.99,254.45 -7.88,255.43 -14.77,256.40 -21.21,256.52 -27.66,256.64 -33.67,256.22 -39.68,255.81 -45.34,254.89 -50.99,253.96 -56.53,252.48 -62.08,251.00 -67.77,248.95 -73.46,246.89 -79.69,244.18 -85.92,241.47 -94.25,237.78 -102.59,234.09 -109.37,230.06 -116.15,226.04 -119.91,222.81 -123.67,219.58 -127.07,216.09 -130.47,212.59 -133.59,208.80 -136.70,205.01 -139.75,200.73 -142.80,196.45 -145.63,191.79 -148.47,187.12 -150.88,182.40 -153.30,177.68 -155.56,172.63 -157.82,167.57 -160.02,161.81 -162.22,156.06 -163.76,149.95 -165.30,143.84 -165.79,138.06 -166.28,132.27 -166.14,126.71 -166.00,121.15 -165.59,115.23 -165.19,109.30 -164.43,102.99 -163.68,96.68 -162.29,90.42 -160.90,84.15 -158.83,78.28 -156.77,72.42 -154.15,67.03 -151.54,61.64 -148.37,56.64 -145.21,51.63 -141.43,46.85 -137.66,42.06 -133.20,37.38 -128.75,32.70 -123.62,28.07 -118.50,23.45 -112.71,19.00 -106.92,14.55 -100.52,10.42 -94.12,6.29 -87.31,2.79 -80.51,-0.71 -73.41,-3.21 -66.30,-5.72 -59.07,-7.11 -51.84,-8.51 -44.90,-8.87 -37.96,-9.23 -30.74,-9.27 -23.51,-9.32 -16.89,-9.23 -10.27,-9.15 -4.97,-8.75 0.32,-8.34 1.32,-8.18 2.31,-8.02 3.24,-7.63 4.17,-7.23 4.97,-6.63 5.78,-6.03 6.42,-5.25 7.05,-4.47 7.49,-3.56 7.92,-2.65 8.12,-1.66 8.32,-0.67 8.28,0.32 8.24,1.33 7.96,2.30 7.68,3.26 7.18,4.14 6.68,5.01 5.98,5.74 5.28,6.46 4.43,7.00 3.58,7.54 2.63,7.86 1.67,8.18 0.67,8.26 -0.33,8.34 -0.32,8.34 L -0.32,8.34 Z"/></g><g transform="translate(310.45326297976817 306.7206745952567) rotate(344.28078782709224 21.898587587581687 156.43980988268024)" stroke="none"><path fill="#1e1e1e" d="M 6.47,2.20 Q 6.47,2.20 3.41,10.54 0.35,18.89 -3.33,27.02 -7.02,35.15 -11.18,43.11 -15.33,51.08 -20.02,59.47 -24.70,67.86 -29.51,76.45 -34.32,85.04 -39.08,93.38 -43.84,101.73 -48.35,109.45 -52.86,117.16 -56.59,123.94 -60.32,130.72 -63.15,136.35 -65.97,141.98 -68.04,146.56 -70.10,151.15 -71.68,155.11 -73.27,159.07 -75.33,165.08 -77.40,171.09 -78.76,176.21 -80.11,181.34 -80.96,185.77 -81.80,190.20 -82.83,194.64 -83.86,199.08 -84.12,203.48 -84.37,207.88 -85.12,212.12 -85.87,216.36 -86.97,221.55 -88.07,226.73 -88.69,231.27 -89.32,235.80 -84.25,238.26 -79.18,240.73 -73.15,244.32 -67.12,247.91 -58.48,252.29 -49.83,256.68 -39.85,260.93 -29.88,265.18 -19.18,269.13 -8.48,273.08 2.04,276.49 12.58,279.90 22.51,282.80 32.44,285.70 41.30,288.18 50.15,290.66 57.28,292.34 64.41,294.03 70.01,295.14 75.61,296.25 80.32,297.19 85.03,298.14 91.95,299.50 98.87,300.86 103.36,301.57 107.84,302.29 112.17,299.71 116.49,297.14 120.23,289.87 123.98,282.60 125.81,277.99 127.65,273.39 129.18,268.52 130.70,263.64 131.89,258.25 133.08,252.86 134.06,246.75 135.04,240.63 135.74,233.98 136.45,227.32 137.04,215.93 137.63,204.54 137.53,195.58 137.42,186.63 136.71,178.87 135.99,171.11 134.90,164.11 133.80,157.11 132.65,150.56 131.50,144.01 130.45,138.45 129.41,132.88 128.53,128.31 127.65,123.73 126.96,119.23 126.26,114.74 125.16,107.10 124.06,99.46 123.17,92.34 122.28,85.21 121.48,78.20 120.67,71.20 119.89,62.06 119.10,52.92 118.14,46.20 117.18,39.48 116.19,34.55 115.19,29.62 114.37,24.66 113.56,19.70 113.22,14.65 112.89,9.60 113.20,7.51 113.52,5.43 114.49,3.55 115.45,1.68 116.96,0.21 118.48,-1.24 120.38,-2.15 122.28,-3.06 124.38,-3.31 126.47,-3.56 128.53,-3.14 130.60,-2.71 132.41,-1.64 134.23,-0.58 135.62,1.01 137.00,2.60 137.80,4.54 138.61,6.49 138.74,8.60 138.88,10.70 138.34,12.74 137.80,14.77 136.64,16.53 135.48,18.29 133.81,19.59 132.15,20.88 130.16,21.58 128.17,22.27 126.06,22.30 123.96,22.32 121.95,21.67 119.95,21.02 118.25,19.77 116.56,18.51 115.36,16.78 114.16,15.05 113.57,13.03 112.98,11.00 113.07,8.90 113.16,6.79 113.92,4.82 114.68,2.86 116.02,1.23 117.37,-0.38 119.16,-1.49 120.95,-2.59 123.01,-3.07 125.06,-3.55 127.16,-3.34 129.26,-3.14 131.18,-2.28 133.10,-1.41 134.65,0.01 136.20,1.44 137.20,3.29 138.21,5.14 138.58,7.22 138.94,9.29 138.94,9.29 138.94,9.29 138.91,13.31 138.88,17.33 139.07,21.61 139.25,25.89 139.72,31.35 140.18,36.81 140.76,43.82 141.35,50.84 142.17,60.17 142.99,69.49 143.27,76.53 143.55,83.58 143.75,90.69 143.95,97.81 144.16,105.37 144.37,112.92 144.56,117.22 144.74,121.51 145.05,126.04 145.35,130.57 145.92,136.11 146.48,141.65 147.41,148.27 148.34,154.89 149.42,162.15 150.51,169.40 151.66,177.55 152.82,185.70 153.82,195.13 154.82,204.56 155.38,216.60 155.94,228.63 155.70,235.92 155.46,243.21 154.80,250.10 154.13,257.00 152.99,263.46 151.85,269.92 150.22,275.68 148.58,281.43 146.57,286.84 144.56,292.24 142.20,297.30 139.85,302.36 137.11,306.83 134.37,311.29 129.90,316.12 125.42,320.95 119.66,322.38 113.91,323.80 108.47,322.74 103.02,321.68 98.47,320.04 93.91,318.40 87.36,315.90 80.82,313.39 76.40,311.82 71.99,310.25 66.59,308.51 61.19,306.77 54.10,304.86 47.01,302.95 38.01,300.86 29.01,298.76 18.78,296.36 8.55,293.95 -2.42,291.19 -13.40,288.43 -24.68,285.33 -35.96,282.24 -46.79,279.06 -57.61,275.89 -67.50,272.77 -77.39,269.65 -85.25,266.67 -93.11,263.70 -98.22,260.75 -103.32,257.79 -106.96,254.64 -110.60,251.50 -113.70,244.32 -116.79,237.14 -116.36,232.47 -115.92,227.81 -114.50,222.23 -113.08,216.65 -111.48,211.43 -109.88,206.21 -109.23,202.00 -108.58,197.78 -107.11,193.65 -105.63,189.52 -103.75,185.01 -101.87,180.50 -99.98,176.03 -98.09,171.56 -96.12,167.72 -94.15,163.87 -90.79,157.92 -87.42,151.97 -85.08,148.10 -82.73,144.22 -79.92,139.91 -77.10,135.60 -73.67,130.30 -70.23,125.01 -66.23,118.36 -62.24,111.71 -57.82,104.03 -53.40,96.35 -48.74,87.99 -44.09,79.64 -39.39,71.02 -34.70,62.39 -30.25,54.09 -25.80,45.78 -22.00,38.03 -18.21,30.29 -14.99,22.52 -11.78,14.76 -9.13,6.28 -6.47,-2.20 -6.12,-2.94 -5.76,-3.68 -5.23,-4.32 -4.71,-4.95 -4.05,-5.45 -3.38,-5.94 -2.62,-6.26 -1.86,-6.58 -1.05,-6.70 -0.23,-6.83 0.58,-6.76 1.40,-6.69 2.18,-6.43 2.96,-6.16 3.66,-5.72 4.35,-5.27 4.92,-4.67 5.49,-4.08 5.89,-3.36 6.30,-2.64 6.53,-1.85 6.75,-1.06 6.78,-0.23 6.81,0.58 6.64,1.39 6.47,2.20 6.47,2.20 L 6.47,2.20 Z"/></g><g transform="translate(315.57660940305504 330.0243769449287) rotate(0 -152.78830470152752 -90.83750841502524)" stroke="none"><path fill="#1e1e1e" d="M -0.42,6.23 Q -0.42,6.23 -11.76,5.32 -23.10,4.41 -36.24,1.51 -49.38,-1.38 -65.25,-7.67 -81.12,-13.96 -99.81,-23.58 -118.50,-33.19 -135.94,-43.58 -153.39,-53.97 -168.96,-64.78 -184.53,-75.58 -198.85,-86.59 -213.17,-97.59 -224.48,-106.92 -235.79,-116.25 -244.41,-123.62 -253.02,-130.98 -259.78,-136.85 -266.53,-142.71 -272.15,-147.28 -277.77,-151.84 -282.45,-155.23 -287.14,-158.62 -290.78,-161.04 -294.42,-163.46 -299.15,-166.41 -303.88,-169.36 -306.77,-171.28 -309.67,-173.20 -310.88,-174.11 -312.10,-175.03 -312.96,-176.28 -313.82,-177.54 -314.23,-179.00 -314.65,-180.47 -314.57,-181.99 -314.50,-183.51 -313.94,-184.92 -313.39,-186.34 -312.41,-187.50 -311.43,-188.67 -310.13,-189.46 -308.83,-190.25 -307.34,-190.58 -305.86,-190.92 -304.34,-190.76 -302.83,-190.60 -301.45,-189.97 -300.06,-189.34 -298.95,-188.30 -297.84,-187.26 -297.12,-185.92 -296.40,-184.58 -296.15,-183.07 -295.90,-181.57 -296.13,-180.07 -296.37,-178.57 -297.08,-177.22 -297.79,-175.87 -298.89,-174.82 -299.99,-173.77 -301.36,-173.12 -302.74,-172.48 -304.25,-172.31 -305.77,-172.13 -307.25,-172.45 -308.74,-172.77 -310.05,-173.55 -311.36,-174.33 -312.35,-175.49 -313.34,-176.64 -313.91,-178.05 -314.48,-179.46 -314.57,-180.98 -314.66,-182.50 -314.26,-183.97 -313.86,-185.44 -313.01,-186.70 -312.16,-187.97 -310.95,-188.89 -309.75,-189.82 -308.31,-190.31 -306.87,-190.80 -305.35,-190.81 -303.82,-190.82 -302.38,-190.34 -300.93,-189.86 -300.94,-189.86 -300.94,-189.86 -297.03,-186.42 -293.13,-182.98 -289.12,-178.98 -285.10,-174.98 -281.90,-171.87 -278.70,-168.76 -274.41,-164.68 -270.12,-160.60 -264.86,-155.66 -259.60,-150.71 -252.86,-144.89 -246.13,-139.06 -237.57,-131.77 -229.02,-124.48 -217.83,-115.29 -206.65,-106.10 -192.52,-95.28 -178.38,-84.46 -163.10,-73.91 -147.82,-63.35 -130.64,-53.19 -113.46,-43.03 -95.22,-33.74 -76.98,-24.44 -61.95,-18.56 -46.93,-12.67 -34.60,-10.08 -22.27,-7.50 -10.92,-6.86 0.42,-6.23 1.16,-6.09 1.90,-5.95 2.58,-5.63 3.27,-5.32 3.86,-4.85 4.45,-4.38 4.91,-3.78 5.37,-3.19 5.67,-2.50 5.97,-1.81 6.10,-1.07 6.23,-0.33 6.18,0.42 6.13,1.17 5.90,1.88 5.67,2.60 5.28,3.24 4.88,3.89 4.35,4.41 3.81,4.94 3.16,5.33 2.52,5.71 1.80,5.93 1.07,6.15 0.32,6.19 -0.42,6.23 -0.42,6.23 L -0.42,6.23 Z"/></g><g transform="translate(402.40333554967015 297.52574671248794) rotate(0 0.00005000000000165983 0.00005000000000165983)" stroke="none"><path fill="#1e1e1e" d="M 6.28,-6.28 Q 6.28,-6.28 7.11,-5.11 7.95,-3.94 8.37,-2.57 8.80,-1.19 8.76,0.23 8.72,1.67 8.22,3.02 7.73,4.37 6.83,5.49 5.93,6.61 4.72,7.38 3.50,8.15 2.11,8.50 0.72,8.85 -0.71,8.73 -2.14,8.61 -3.46,8.05 -4.78,7.48 -5.85,6.52 -6.92,5.56 -7.63,4.31 -8.33,3.06 -8.60,1.65 -8.87,0.23 -8.68,-1.18 -8.49,-2.60 -7.85,-3.89 -7.21,-5.18 -6.19,-6.19 -5.18,-7.21 -3.89,-7.85 -2.60,-8.49 -1.18,-8.68 0.24,-8.87 1.65,-8.60 3.06,-8.33 4.31,-7.62 5.56,-6.92 6.52,-5.85 7.48,-4.78 8.05,-3.46 8.62,-2.14 8.73,-0.70 8.85,0.72 8.50,2.11 8.15,3.51 7.38,4.72 6.61,5.93 5.48,6.83 4.36,7.73 3.02,8.22 1.67,8.72 0.23,8.76 -1.20,8.80 -2.57,8.37 -3.94,7.95 -5.11,7.11 -6.28,6.27 -6.28,6.27 -6.28,6.28 -6.94,5.43 -7.60,4.59 -8.04,3.61 -8.48,2.64 -8.67,1.58 -8.86,0.53 -8.80,-0.53 -8.73,-1.60 -8.41,-2.62 -8.09,-3.64 -7.54,-4.56 -6.99,-5.47 -6.23,-6.23 -5.47,-6.99 -4.56,-7.54 -3.64,-8.10 -2.62,-8.41 -1.60,-8.73 -0.53,-8.80 0.53,-8.86 1.59,-8.67 2.64,-8.48 3.61,-8.04 4.59,-7.60 5.43,-6.94 6.28,-6.28 6.28,-6.28 L 6.28,-6.28 Z"/></g><g transform="translate(177.12203970889504 128.2733081493393) rotate(0 -48.353433207905255 -58.99639048999427)" stroke="none"><path fill="#1e1e1e" d="M -6.49,4.89 Q -6.49,4.89 -12.29,-3.44 -18.09,-11.77 -24.07,-20.27 -30.05,-28.78 -36.38,-37.60 -42.71,-46.43 -49.10,-55.03 -55.48,-63.63 -60.66,-70.57 -65.85,-77.52 -70.26,-82.52 -74.68,-87.52 -78.54,-91.16 -82.41,-94.80 -87.92,-99.29 -93.43,-103.79 -96.96,-106.24 -100.49,-108.68 -101.53,-109.65 -102.58,-110.63 -103.61,-111.79 -104.65,-112.95 -105.26,-114.39 -105.87,-115.82 -105.99,-117.38 -106.11,-118.93 -105.73,-120.44 -105.34,-121.96 -104.50,-123.27 -103.65,-124.58 -102.43,-125.55 -101.22,-126.52 -99.75,-127.05 -98.28,-127.58 -96.73,-127.62 -95.17,-127.65 -93.68,-127.19 -92.19,-126.73 -90.93,-125.81 -89.67,-124.90 -88.76,-123.63 -87.86,-122.36 -87.41,-120.86 -86.95,-119.37 -87.00,-117.81 -87.05,-116.26 -87.60,-114.79 -88.14,-113.33 -89.12,-112.12 -90.10,-110.91 -91.42,-110.08 -92.74,-109.24 -94.25,-108.87 -95.77,-108.50 -97.32,-108.64 -98.87,-108.77 -100.30,-109.39 -101.73,-110.01 -102.89,-111.06 -104.04,-112.11 -104.81,-113.47 -105.57,-114.83 -105.85,-116.36 -106.14,-117.89 -105.92,-119.44 -105.71,-120.98 -105.01,-122.37 -104.31,-123.77 -103.20,-124.86 -102.09,-125.96 -100.70,-126.65 -99.30,-127.33 -97.75,-127.54 -96.20,-127.74 -94.67,-127.44 -93.15,-127.14 -91.79,-126.37 -90.44,-125.59 -90.44,-125.60 -90.44,-125.60 -87.51,-122.48 -84.58,-119.36 -81.04,-115.26 -77.51,-111.16 -74.74,-107.81 -71.97,-104.46 -68.36,-100.02 -64.75,-95.58 -60.66,-90.11 -56.56,-84.63 -51.20,-77.82 -45.84,-71.01 -39.16,-62.53 -32.49,-54.06 -25.82,-45.48 -19.15,-36.90 -12.73,-28.77 -6.32,-20.63 0.08,-12.76 6.49,-4.89 6.98,-4.04 7.47,-3.19 7.75,-2.25 8.02,-1.31 8.06,-0.33 8.10,0.64 7.91,1.60 7.71,2.56 7.29,3.45 6.88,4.33 6.26,5.09 5.64,5.85 4.85,6.44 4.07,7.03 3.17,7.42 2.27,7.81 1.30,7.96 0.33,8.12 -0.64,8.04 -1.61,7.97 -2.54,7.66 -3.47,7.35 -4.30,6.82 -5.13,6.30 -5.81,5.60 -6.49,4.89 -6.49,4.89 L -6.49,4.89 Z"/></g><g transform="translate(362.02330923888235 211.20751767803426) rotate(0 -20.413559729817166 32.029634275611045)" stroke="none"><path fill="#1e1e1e" d="M 0,10.64 Q 0,10.64 -4.72,10.70 -9.44,10.76 -16.61,11.00 -23.78,11.24 -25.86,16.89 -27.94,22.54 -27.95,27.83 -27.95,33.13 -24.82,36.87 -21.69,40.62 -17.50,43.39 -13.30,46.15 -9.22,48.17 -5.14,50.19 -3.59,50.29 -2.04,50.39 0.10,50.64 2.26,50.89 4.22,51.81 6.18,52.74 7.74,54.24 9.31,55.74 10.31,57.66 11.31,59.58 11.65,61.72 11.99,63.86 11.62,65.99 11.26,68.13 10.23,70.04 9.20,71.95 7.62,73.43 6.04,74.91 4.06,75.80 2.09,76.70 -0.05,76.92 -2.21,77.14 -4.32,76.66 -6.44,76.18 -8.28,75.05 -10.13,73.93 -11.53,72.26 -12.92,70.60 -13.71,68.59 -14.50,66.57 -14.60,64.40 -14.70,62.24 -14.11,60.15 -13.52,58.07 -12.29,56.29 -11.06,54.50 -9.33,53.20 -7.59,51.90 -5.54,51.22 -3.48,50.54 -1.31,50.56 0.84,50.57 2.89,51.28 4.94,51.98 6.66,53.30 8.38,54.63 9.58,56.43 10.78,58.23 11.35,60.32 11.92,62.41 11.78,64.58 11.65,66.74 10.84,68.75 10.02,70.75 8.61,72.40 7.20,74.04 5.33,75.14 3.47,76.25 1.35,76.70 -0.76,77.15 -0.76,77.15 -0.76,77.15 -6.73,76.33 -12.69,75.51 -17.02,73.42 -21.34,71.33 -27.39,67.69 -33.43,64.05 -36.89,61.26 -40.36,58.48 -43.75,54.74 -47.14,51.00 -49.65,46.20 -52.16,41.40 -52.79,34.16 -53.41,26.93 -52.88,20.38 -52.36,13.83 -49.99,7.00 -47.63,0.17 -41.63,-4.87 -35.63,-9.92 -29.71,-10.58 -23.79,-11.24 -16.61,-11.00 -9.44,-10.76 -4.72,-10.70 0,-10.64 1.27,-10.49 2.54,-10.33 3.74,-9.88 4.94,-9.42 6.00,-8.69 7.06,-7.96 7.91,-7.00 8.76,-6.04 9.35,-4.91 9.95,-3.77 10.26,-2.52 10.56,-1.28 10.56,0.00 10.56,1.28 10.26,2.52 9.95,3.77 9.35,4.91 8.76,6.04 7.91,7.00 7.05,7.96 6.00,8.69 4.94,9.42 3.74,9.88 2.54,10.33 1.27,10.49 -0.00,10.64 -0.00,10.64 L 0,10.64 Z"/></g><g transform="translate(394.3553734918273 142.4405009587615) rotate(0 0 -0.14026358467538103)" stroke="none"><path fill="#1e1e1e" d="M -8.92,-0.16 Q -8.92,-0.16 -8.68,-1.58 -8.45,-3.01 -7.77,-4.28 -7.10,-5.56 -6.05,-6.55 -5.00,-7.54 -3.69,-8.15 -2.38,-8.75 -0.95,-8.91 0.48,-9.07 1.89,-8.75 3.30,-8.44 4.53,-7.70 5.77,-6.96 6.71,-5.86 7.64,-4.76 8.17,-3.41 8.71,-2.07 8.79,-0.63 8.86,0.80 8.48,2.19 8.09,3.58 7.28,4.78 6.47,5.97 5.32,6.84 4.17,7.72 2.81,8.18 1.44,8.64 -0.00,8.64 -1.44,8.64 -2.81,8.18 -4.18,7.72 -5.32,6.84 -6.47,5.97 -7.28,4.77 -8.09,3.58 -8.48,2.19 -8.86,0.80 -8.79,-0.63 -8.71,-2.08 -8.17,-3.42 -7.64,-4.76 -6.70,-5.86 -5.77,-6.96 -4.53,-7.70 -3.30,-8.45 -1.89,-8.76 -0.48,-9.07 0.95,-8.91 2.38,-8.75 3.69,-8.15 5.00,-7.54 6.05,-6.55 7.10,-5.55 7.78,-4.28 8.45,-3.00 8.68,-1.58 8.92,-0.15 8.92,-0.15 8.92,-0.16 8.81,0.90 8.70,1.97 8.33,2.99 7.97,4.00 7.37,4.89 6.78,5.79 5.99,6.52 5.20,7.25 4.25,7.76 3.31,8.28 2.27,8.56 1.23,8.83 0.15,8.85 -0.91,8.87 -1.96,8.63 -3.01,8.39 -3.97,7.91 -4.93,7.43 -5.75,6.73 -6.57,6.03 -7.19,5.16 -7.82,4.28 -8.22,3.28 -8.62,2.29 -8.77,1.22 -8.92,0.16 -8.92,-0.00 L -8.92,-0.16 Z"/></g><g transform="translate(319.0745900986685 140.26634405164214) rotate(0 -0.14026358467526734 0)" stroke="none"><path fill="#1e1e1e" d="M -0.16,8.92 Q -0.16,8.92 -1.58,8.68 -3.01,8.45 -4.28,7.77 -5.56,7.10 -6.55,6.05 -7.54,5.00 -8.15,3.69 -8.75,2.38 -8.91,0.95 -9.07,-0.48 -8.75,-1.89 -8.44,-3.30 -7.70,-4.53 -6.96,-5.77 -5.86,-6.71 -4.76,-7.64 -3.41,-8.17 -2.07,-8.71 -0.63,-8.79 0.80,-8.86 2.19,-8.48 3.58,-8.09 4.78,-7.28 5.97,-6.47 6.84,-5.32 7.72,-4.17 8.18,-2.81 8.64,-1.44 8.64,0.00 8.64,1.44 8.18,2.81 7.72,4.18 6.84,5.32 5.97,6.47 4.77,7.28 3.58,8.09 2.19,8.48 0.80,8.86 -0.63,8.79 -2.08,8.71 -3.42,8.17 -4.76,7.64 -5.86,6.70 -6.96,5.77 -7.70,4.53 -8.45,3.30 -8.76,1.89 -9.07,0.48 -8.91,-0.95 -8.75,-2.38 -8.15,-3.69 -7.54,-5.00 -6.55,-6.05 -5.55,-7.10 -4.28,-7.78 -3.00,-8.45 -1.58,-8.68 -0.15,-8.92 -0.15,-8.92 -0.16,-8.92 0.90,-8.81 1.97,-8.70 2.99,-8.33 4.00,-7.97 4.89,-7.37 5.79,-6.78 6.52,-5.99 7.25,-5.20 7.76,-4.25 8.28,-3.31 8.56,-2.27 8.83,-1.23 8.85,-0.15 8.87,0.91 8.63,1.96 8.39,3.01 7.91,3.97 7.43,4.93 6.73,5.75 6.03,6.57 5.16,7.19 4.28,7.82 3.28,8.22 2.29,8.62 1.22,8.77 0.16,8.92 -0.00,8.92 L -0.16,8.92 Z"/></g><g stroke-opacity="0" fill-opacity="0" stroke-linecap="round" transform="translate(239.81456492439565 792.0517305757526) rotate(0 193.56328964233398 87.89941787719727)"><path d="M32 0 C98.16 0.65, 162.18 2.2, 355.13 0 M32 0 C108.07 1.05, 184.09 0.76, 355.13 0 M355.13 0 C377.88 -1.27, 387.13 12.41, 387.13 32 M355.13 0 C376.47 0.9, 387.27 12.91, 387.13 32 M387.13 32 C386.11 63.51, 389.7 95.59, 387.13 143.8 M387.13 32 C387.59 60.3, 386.82 86.46, 387.13 143.8 M387.13 143.8 C387.44 165.77, 377.44 177.56, 355.13 175.8 M387.13 143.8 C386.56 166.83, 376.46 176, 355.13 175.8 M355.13 175.8 C276.58 175.01, 199.61 176.45, 32 175.8 M355.13 175.8 C241.54 176.49, 127.81 176.85, 32 175.8 M32 175.8 C10.5 173.8, 1.91 164.95, 0 143.8 M32 175.8 C11.74 174.34, -2.02 164.61, 0 143.8 M0 143.8 C1.94 116.57, 0.38 85.3, 0 32 M0 143.8 C-0.2 100.81, -1.19 57.36, 0 32 M0 32 C0.6 8.92, 12.13 -0.49, 32 0 M0 32 C-0.46 10.27, 12.39 -2.24, 32 0" stroke="#1e1e1e" stroke-width="2" fill="none"/></g><g stroke-opacity="0" fill-opacity="0" transform="translate(515.3571293164855 340.8513216402057) rotate(0 0.05451202392578125 0.054492950439453125)" stroke="none"><path fill="#1e1e1e" d="M 3.21,-3.09 Q 3.21,-3.09 3.63,-2.50 4.06,-1.92 4.27,-1.23 4.48,-0.54 4.46,0.18 4.44,0.90 4.19,1.58 3.94,2.25 3.49,2.82 3.04,3.38 2.43,3.77 1.82,4.16 1.12,4.33 0.42,4.51 -0.29,4.45 -1.01,4.39 -1.67,4.10 -2.34,3.82 -2.87,3.34 -3.41,2.85 -3.77,2.23 -4.12,1.60 -4.26,0.89 -4.39,0.18 -4.30,-0.53 -4.20,-1.24 -3.88,-1.89 -3.56,-2.54 -3.05,-3.05 -2.54,-3.56 -1.89,-3.88 -1.24,-4.20 -0.53,-4.30 0.18,-4.39 0.89,-4.26 1.60,-4.12 2.23,-3.77 2.85,-3.41 3.34,-2.87 3.82,-2.34 4.10,-1.67 4.39,-1.01 4.45,-0.29 4.51,0.42 4.33,1.12 4.16,1.82 3.77,2.43 3.38,3.04 2.82,3.49 2.25,3.94 1.58,4.19 0.90,4.44 0.18,4.46 -0.54,4.48 -1.23,4.27 -1.92,4.06 -2.50,3.63 -3.09,3.21 -3.09,3.21 -3.09,3.21 -3.43,2.80 -3.77,2.38 -4.00,1.89 -4.23,1.41 -4.34,0.88 -4.44,0.35 -4.42,-0.17 -4.40,-0.71 -4.25,-1.23 -4.10,-1.75 -3.83,-2.21 -3.56,-2.68 -3.19,-3.07 -2.82,-3.45 -2.36,-3.74 -1.91,-4.03 -1.40,-4.20 -0.89,-4.37 -0.35,-4.41 0.18,-4.46 0.71,-4.37 1.24,-4.28 1.73,-4.07 2.23,-3.86 2.66,-3.54 3.09,-3.21 3.15,-3.15 L 3.21,-3.09 Z"/></g><g transform="translate(285.77979777351675 596.9083742525104) rotate(0 0.00005000000000165983 0.00005000000000165983)" stroke="none"><path fill="#1e1e1e" d="M 3.14,-3.14 Q 3.14,-3.14 3.55,-2.55 3.97,-1.97 4.18,-1.28 4.40,-0.59 4.38,0.11 4.36,0.83 4.11,1.51 3.86,2.18 3.41,2.74 2.96,3.30 2.36,3.69 1.75,4.07 1.05,4.25 0.36,4.42 -0.35,4.36 -1.07,4.30 -1.73,4.02 -2.39,3.74 -2.92,3.26 -3.46,2.78 -3.81,2.15 -4.16,1.53 -4.30,0.82 -4.43,0.11 -4.34,-0.59 -4.24,-1.30 -3.92,-1.94 -3.60,-2.59 -3.09,-3.09 -2.59,-3.60 -1.94,-3.92 -1.30,-4.24 -0.59,-4.34 0.12,-4.43 0.82,-4.30 1.53,-4.16 2.15,-3.81 2.78,-3.46 3.26,-2.92 3.74,-2.39 4.02,-1.73 4.31,-1.07 4.36,-0.35 4.42,0.36 4.25,1.05 4.07,1.75 3.69,2.36 3.30,2.96 2.74,3.41 2.18,3.86 1.51,4.11 0.83,4.36 0.11,4.38 -0.60,4.40 -1.28,4.18 -1.97,3.97 -2.55,3.55 -3.14,3.13 -3.14,3.14 -3.14,3.14 -3.47,2.71 -3.80,2.29 -4.02,1.80 -4.24,1.32 -4.33,0.79 -4.43,0.26 -4.40,-0.26 -4.36,-0.80 -4.20,-1.31 -4.04,-1.82 -3.77,-2.28 -3.49,-2.73 -3.11,-3.11 -2.73,-3.49 -2.28,-3.77 -1.82,-4.05 -1.31,-4.20 -0.80,-4.36 -0.26,-4.40 0.26,-4.43 0.79,-4.33 1.32,-4.24 1.80,-4.02 2.29,-3.80 2.71,-3.47 3.14,-3.14 3.14,-3.14 L 3.14,-3.14 Z"/></g><g transform="translate(285.77979777351675 596.9083742525104) rotate(0 0.00005000000000165983 0.00005000000000165983)" stroke="none"><path fill="#1e1e1e" d="M 3.14,-3.14 Q 3.14,-3.14 3.55,-2.55 3.97,-1.97 4.18,-1.28 4.40,-0.59 4.38,0.11 4.36,0.83 4.11,1.51 3.86,2.18 3.41,2.74 2.96,3.30 2.36,3.69 1.75,4.07 1.05,4.25 0.36,4.42 -0.35,4.36 -1.07,4.30 -1.73,4.02 -2.39,3.74 -2.92,3.26 -3.46,2.78 -3.81,2.15 -4.16,1.53 -4.30,0.82 -4.43,0.11 -4.34,-0.59 -4.24,-1.30 -3.92,-1.94 -3.60,-2.59 -3.09,-3.09 -2.59,-3.60 -1.94,-3.92 -1.30,-4.24 -0.59,-4.34 0.12,-4.43 0.82,-4.30 1.53,-4.16 2.15,-3.81 2.78,-3.46 3.26,-2.92 3.74,-2.39 4.02,-1.73 4.31,-1.07 4.36,-0.35 4.42,0.36 4.25,1.05 4.07,1.75 3.69,2.36 3.30,2.96 2.74,3.41 2.18,3.86 1.51,4.11 0.83,4.36 0.11,4.38 -0.60,4.40 -1.28,4.18 -1.97,3.97 -2.55,3.55 -3.14,3.13 -3.14,3.14 -3.14,3.14 -3.47,2.71 -3.80,2.29 -4.02,1.80 -4.24,1.32 -4.33,0.79 -4.43,0.26 -4.40,-0.26 -4.36,-0.80 -4.20,-1.31 -4.04,-1.82 -3.77,-2.28 -3.49,-2.73 -3.11,-3.11 -2.73,-3.49 -2.28,-3.77 -1.82,-4.05 -1.31,-4.20 -0.80,-4.36 -0.26,-4.40 0.26,-4.43 0.79,-4.33 1.32,-4.24 1.80,-4.02 2.29,-3.80 2.71,-3.47 3.14,-3.14 3.14,-3.14 L 3.14,-3.14 Z"/></g><g transform="translate(410.01144145027456 591.2130693819049) rotate(0 61.2562370300293 54.11600112915039)" stroke="none"><path fill="#1e1e1e" d="M 2.72,-2.02 Q 2.72,-2.02 7.47,4.53 12.21,11.10 17.96,18.65 23.70,26.20 29.69,34.08 35.68,41.96 41.37,49.49 47.06,57.03 52.21,63.78 57.36,70.52 61.72,76.14 66.08,81.76 69.46,86.03 72.83,90.30 75.43,93.44 78.03,96.57 80.11,98.70 82.19,100.83 84.30,102.70 86.42,104.57 88.32,100.65 90.22,96.74 92.75,94.47 95.27,92.20 97.71,89.99 100.15,87.79 102.41,85.76 104.67,83.74 106.63,82.04 108.59,80.34 110.27,78.97 111.95,77.61 114.59,75.79 117.23,73.96 117.19,74.53 117.15,75.09 117.51,74.32 117.87,73.54 118.46,72.92 119.05,72.30 119.81,71.90 120.57,71.50 121.42,71.36 122.26,71.22 123.11,71.36 123.95,71.51 124.71,71.91 125.46,72.31 126.05,72.94 126.64,73.56 127.00,74.34 127.36,75.12 127.45,75.97 127.54,76.82 127.35,77.66 127.17,78.49 126.72,79.23 126.28,79.96 125.62,80.51 124.97,81.07 124.17,81.38 123.38,81.70 122.52,81.74 121.66,81.79 120.84,81.56 120.01,81.32 119.30,80.84 118.60,80.36 118.08,79.68 117.56,78.99 117.29,78.18 117.02,77.37 117.02,76.51 117.02,75.65 117.30,74.84 117.57,74.03 118.09,73.35 118.62,72.67 119.33,72.19 120.04,71.71 120.86,71.48 121.69,71.25 122.55,71.30 123.40,71.35 124.20,71.67 124.99,71.99 125.64,72.55 126.30,73.10 126.74,73.84 127.18,74.57 127.36,75.41 127.54,76.25 127.44,77.10 127.35,77.95 127.35,77.95 127.35,77.95 123.85,80.99 120.35,84.03 117.41,85.81 114.48,87.59 112.54,89.06 110.60,90.52 108.38,92.43 106.15,94.33 103.76,96.55 101.36,98.77 98.89,101.14 96.42,103.51 94.12,105.61 91.82,107.71 88.41,109.69 85.00,111.67 82.81,110.71 80.63,109.75 79.00,107.35 77.37,104.94 75.56,102.50 73.75,100.07 71.17,96.87 68.59,93.67 65.18,89.40 61.76,85.13 57.36,79.52 52.95,73.91 47.75,67.19 42.54,60.47 36.79,53.00 31.05,45.52 24.97,37.72 18.90,29.91 13.00,22.41 7.10,14.90 2.18,8.46 -2.72,2.02 -2.92,1.66 -3.13,1.31 -3.24,0.91 -3.35,0.52 -3.36,0.11 -3.38,-0.29 -3.29,-0.69 -3.21,-1.09 -3.03,-1.46 -2.85,-1.83 -2.59,-2.14 -2.33,-2.46 -2.00,-2.70 -1.68,-2.94 -1.30,-3.10 -0.92,-3.26 -0.52,-3.32 -0.11,-3.39 0.28,-3.35 0.69,-3.32 1.08,-3.19 1.47,-3.05 1.81,-2.83 2.16,-2.61 2.44,-2.32 2.72,-2.02 2.72,-2.02 L 2.72,-2.02 Z"/></g><g transform="translate(309.13409922615347 599.6575884248737) rotate(0 64.47830200195312 65.69999694824219)" stroke="none"><path fill="#1e1e1e" d="M 2.23,-2.20 Q 2.23,-2.20 5.38,1.09 8.54,4.39 13.33,9.53 18.11,14.66 24.04,21.13 29.96,27.60 35.81,34.27 41.66,40.94 46.74,46.95 51.82,52.96 56.46,58.49 61.11,64.03 65.15,68.97 69.19,73.91 72.56,78.19 75.93,82.48 78.51,85.82 81.10,89.17 83.23,91.71 85.36,94.25 87.18,96.42 88.99,98.60 90.50,100.34 92.01,102.07 94.30,104.50 96.59,106.94 98.10,108.43 99.62,109.93 101.41,111.71 103.20,113.50 104.78,115.16 106.36,116.83 108.32,119.05 110.27,121.27 111.91,123.04 113.56,124.81 116.96,124.06 120.36,123.31 122.87,122.69 125.38,122.07 126.38,121.67 127.38,121.27 128.46,121.21 129.53,121.15 130.57,121.44 131.61,121.72 132.50,122.32 133.39,122.93 134.04,123.78 134.69,124.64 135.04,125.66 135.39,126.68 135.39,127.75 135.39,128.83 135.05,129.85 134.70,130.87 134.05,131.73 133.40,132.59 132.51,133.19 131.62,133.80 130.59,134.09 129.55,134.37 128.48,134.32 127.40,134.26 126.40,133.86 125.40,133.47 124.58,132.77 123.76,132.08 123.20,131.16 122.65,130.23 122.41,129.18 122.18,128.13 122.30,127.06 122.41,125.99 122.86,125.02 123.31,124.04 124.05,123.26 124.79,122.47 125.74,121.97 126.69,121.46 127.75,121.29 128.81,121.11 129.88,121.28 130.94,121.46 131.89,121.96 132.84,122.46 133.58,123.24 134.32,124.02 134.78,125.00 135.23,125.97 135.35,127.04 135.47,128.11 135.24,129.17 135.01,130.22 134.45,131.14 133.90,132.06 133.08,132.76 132.26,133.46 132.26,133.46 132.26,133.46 128.92,134.62 125.58,135.78 122.57,136.34 119.57,136.90 116.38,137.33 113.19,137.76 110.14,137.01 107.09,136.26 105.47,134.47 103.84,132.69 102.36,130.70 100.87,128.72 99.26,126.38 97.66,124.05 96.25,122.12 94.84,120.19 93.43,118.12 92.02,116.05 90.83,114.25 89.64,112.45 87.77,109.50 85.89,106.56 84.68,104.58 83.46,102.60 82.00,100.24 80.53,97.89 78.70,95.16 76.87,92.43 74.31,89.11 71.74,85.78 68.40,81.55 65.05,77.31 61.01,72.41 56.97,67.51 52.32,62.00 47.67,56.49 42.59,50.55 37.50,44.61 31.66,38.02 25.81,31.43 19.86,25.03 13.91,18.64 9.09,13.62 4.27,8.60 1.02,5.40 -2.23,2.20 -2.46,1.90 -2.69,1.60 -2.84,1.25 -2.99,0.91 -3.06,0.53 -3.12,0.16 -3.10,-0.20 -3.07,-0.58 -2.96,-0.94 -2.84,-1.30 -2.65,-1.62 -2.45,-1.94 -2.18,-2.21 -1.91,-2.48 -1.59,-2.67 -1.26,-2.86 -0.90,-2.97 -0.54,-3.08 -0.16,-3.10 0.21,-3.12 0.58,-3.05 0.95,-2.98 1.29,-2.82 1.63,-2.67 1.93,-2.43 2.23,-2.20 2.23,-2.20 L 2.23,-2.20 Z"/></g><g stroke-opacity="0" fill-opacity="0" stroke-linecap="round" transform="translate(205.17352793709097 742.4790529634479) rotate(0 218.45216751098633 111.09376907348633)"><path d="M32 0 C167.9 -1.34, 304.41 -1.17, 404.9 0 M32 0 C119.67 -1.02, 208.06 -0.86, 404.9 0 M404.9 0 C427.87 0.53, 434.91 10.81, 436.9 32 M404.9 0 C424.07 1.9, 436.96 12.42, 436.9 32 M436.9 32 C437.03 80.37, 435.13 128.07, 436.9 190.19 M436.9 32 C436.29 73.48, 436.05 113.7, 436.9 190.19 M436.9 190.19 C437.84 212.58, 425.56 223.47, 404.9 222.19 M436.9 190.19 C435.01 210.68, 425.84 221.33, 404.9 222.19 M404.9 222.19 C266.08 223.84, 128.35 223.92, 32 222.19 M404.9 222.19 C295 223.61, 185.76 224.09, 32 222.19 M32 222.19 C12.11 220.48, -1.12 210.28, 0 190.19 M32 222.19 C10.15 224.05, -1.45 210.08, 0 190.19 M0 190.19 C0.55 152.08, 0.5 114.43, 0 32 M0 190.19 C0.97 156.66, 0.5 122.97, 0 32 M0 32 C1.74 11.78, 9.33 -1.11, 32 0 M0 32 C-1.78 9.58, 10.9 1.17, 32 0" stroke="#1e1e1e" stroke-width="2" fill="none"/></g></svg>