<svg version="1.1" xmlns="http://www.w3.org/2000/svg" viewBox="0 0 196.90997565807558 209.232956884532" width="196.90997565807558" height="209.232956884532" class="excalidraw-svg">
  <!-- svg-source:excalidraw -->
  
  <defs>
    <style class="style-fonts">
      @font-face {
        font-family: "Virgil";
        src: url("https://excalidraw.com/Virgil.woff2");
      }
      @font-face {
        font-family: "Cascadia";
        src: url("https://excalidraw.com/Cascadia.woff2");
      }
      @font-face {
        font-family: "Assistant";
        src: url("https://excalidraw.com/Assistant-Regular.woff2");
      }
    </style>
    
  </defs>
  <g transform="translate(11.316436767578125 36.35634573923528) rotate(0 30.185333251953125 -4.5123443603515625)" stroke="none"><path fill="#1e1e1e" d="M -0.42,-4.15 Q -0.42,-4.15 6.18,-4.61 12.78,-5.08 19.70,-6.00 26.62,-6.92 31.68,-7.64 36.74,-8.36 40.64,-9.04 44.55,-9.72 47.87,-10.42 51.19,-11.11 53.61,-11.65 56.02,-12.19 58.17,-12.53 60.32,-12.87 60.97,-12.84 61.61,-12.80 62.21,-12.57 62.80,-12.33 63.30,-11.91 63.79,-11.50 64.12,-10.95 64.45,-10.39 64.59,-9.77 64.73,-9.14 64.66,-8.50 64.59,-7.86 64.32,-7.27 64.05,-6.69 63.61,-6.22 63.17,-5.75 62.60,-5.45 62.03,-5.15 61.40,-5.05 60.76,-4.94 60.13,-5.04 59.49,-5.15 58.92,-5.45 58.35,-5.75 57.91,-6.22 57.47,-6.68 57.20,-7.27 56.93,-7.85 56.86,-8.49 56.79,-9.13 56.92,-9.76 57.06,-10.39 57.39,-10.94 57.72,-11.49 58.21,-11.91 58.70,-12.32 59.30,-12.56 59.90,-12.80 60.54,-12.84 61.18,-12.87 61.80,-12.70 62.42,-12.53 62.96,-12.17 63.49,-11.81 63.88,-11.30 64.27,-10.78 64.48,-10.17 64.68,-9.57 64.68,-8.92 64.68,-8.28 64.48,-7.67 64.27,-7.06 63.88,-6.55 63.50,-6.03 62.96,-5.67 62.43,-5.31 61.81,-5.14 61.19,-4.96 61.19,-4.96 61.19,-4.96 59.15,-4.84 57.11,-4.72 54.75,-4.57 52.39,-4.41 49.03,-3.92 45.67,-3.42 41.73,-2.70 37.79,-1.98 32.74,-1.03 27.68,-0.09 20.61,1.15 13.54,2.40 6.98,3.28 0.42,4.15 -0.08,4.14 -0.58,4.13 -1.07,4.00 -1.55,3.87 -1.99,3.63 -2.43,3.38 -2.80,3.04 -3.17,2.70 -3.45,2.28 -3.73,1.86 -3.90,1.39 -4.07,0.91 -4.12,0.41 -4.17,-0.08 -4.10,-0.58 -4.03,-1.07 -3.84,-1.54 -3.65,-2.01 -3.36,-2.42 -3.07,-2.83 -2.68,-3.15 -2.30,-3.48 -1.85,-3.70 -1.40,-3.93 -0.91,-4.04 -0.42,-4.15 -0.42,-4.15 L -0.42,-4.15 Z"/></g><g transform="translate(42.277252197265625 30.625480260719655) rotate(0 -0.101043701171875 18.31982421875)" stroke="none"><path fill="#1e1e1e" d="M 1.94,0.03 Q 1.94,0.03 1.80,2.87 1.65,5.71 1.57,9.31 1.48,12.91 1.42,16.43 1.37,19.94 1.33,22.59 1.29,25.24 1.27,27.47 1.24,29.69 1.32,32.85 1.39,36.00 1.35,36.26 1.31,36.51 1.19,36.74 1.07,36.97 0.88,37.15 0.69,37.33 0.46,37.44 0.22,37.55 -0.03,37.57 -0.28,37.60 -0.54,37.55 -0.79,37.49 -1.01,37.36 -1.23,37.22 -1.40,37.03 -1.57,36.83 -1.67,36.59 -1.76,36.35 -1.77,36.09 -1.79,35.83 -1.72,35.58 -1.65,35.33 -1.50,35.12 -1.36,34.90 -1.15,34.74 -0.95,34.59 -0.70,34.51 -0.46,34.42 -0.20,34.42 0.05,34.42 0.30,34.51 0.54,34.59 0.75,34.75 0.96,34.90 1.10,35.12 1.25,35.33 1.32,35.58 1.39,35.83 1.37,36.09 1.36,36.35 1.26,36.59 1.16,36.83 1.00,37.03 0.83,37.22 0.61,37.36 0.38,37.49 0.13,37.55 -0.11,37.60 -0.37,37.57 -0.63,37.55 -0.86,37.44 -1.10,37.33 -1.28,37.15 -1.47,36.97 -1.59,36.74 -1.71,36.51 -1.76,36.26 -1.80,36.00 -1.80,36.00 -1.80,36.00 -1.72,32.85 -1.64,29.69 -1.66,27.46 -1.68,25.24 -1.71,22.59 -1.74,19.93 -1.78,16.41 -1.81,12.89 -1.85,9.26 -1.89,5.64 -1.91,2.80 -1.94,-0.03 -1.91,-0.27 -1.87,-0.50 -1.79,-0.72 -1.70,-0.93 -1.56,-1.12 -1.42,-1.31 -1.25,-1.47 -1.07,-1.62 -0.86,-1.72 -0.65,-1.83 -0.42,-1.88 -0.19,-1.93 0.03,-1.93 0.27,-1.92 0.50,-1.86 0.72,-1.80 0.93,-1.69 1.13,-1.57 1.30,-1.41 1.48,-1.25 1.61,-1.06 1.74,-0.86 1.81,-0.64 1.89,-0.42 1.92,-0.19 1.94,0.03 1.94,0.03 L 1.94,0.03 Z"/></g><g transform="translate(21.66632080078125 73.09835013376653) rotate(0 23.001571655273438 -4.43658447265625)" stroke="none"><path fill="#1e1e1e" d="M -0.30,-2.03 Q -0.30,-2.03 1.76,-2.25 3.84,-2.48 9.83,-3.92 15.82,-5.37 20.28,-6.29 24.74,-7.22 27.52,-7.73 30.31,-8.24 32.46,-8.59 34.61,-8.95 36.22,-9.23 37.83,-9.51 39.52,-9.83 41.21,-10.14 43.31,-10.54 45.42,-10.94 45.77,-10.97 46.13,-11.00 46.47,-10.92 46.82,-10.84 47.12,-10.65 47.43,-10.46 47.65,-10.18 47.88,-9.91 48.00,-9.58 48.13,-9.24 48.14,-8.89 48.16,-8.53 48.06,-8.19 47.96,-7.85 47.75,-7.55 47.55,-7.26 47.26,-7.05 46.97,-6.84 46.63,-6.73 46.29,-6.62 45.94,-6.63 45.58,-6.64 45.24,-6.76 44.91,-6.87 44.63,-7.09 44.35,-7.32 44.15,-7.61 43.96,-7.91 43.87,-8.26 43.78,-8.60 43.80,-8.96 43.83,-9.31 43.97,-9.64 44.10,-9.97 44.34,-10.24 44.57,-10.51 44.88,-10.69 45.19,-10.86 45.54,-10.93 45.89,-11.01 46.24,-10.96 46.60,-10.92 46.92,-10.76 47.24,-10.61 47.49,-10.36 47.75,-10.11 47.91,-9.79 48.07,-9.47 48.12,-9.12 48.18,-8.77 48.11,-8.42 48.05,-8.07 47.88,-7.75 47.70,-7.44 47.44,-7.20 47.18,-6.96 46.85,-6.82 46.53,-6.67 46.53,-6.67 46.53,-6.67 43.98,-6.40 41.43,-6.13 39.83,-6.20 38.24,-6.27 36.68,-6.16 35.12,-6.05 33.01,-5.64 30.90,-5.23 28.17,-4.65 25.43,-4.06 21.05,-3.04 16.67,-2.02 10.54,-0.39 4.40,1.23 2.35,1.63 0.30,2.03 0.05,2.04 -0.18,2.04 -0.43,1.99 -0.67,1.94 -0.89,1.83 -1.11,1.72 -1.30,1.56 -1.49,1.40 -1.64,1.20 -1.79,1.00 -1.88,0.77 -1.98,0.55 -2.01,0.30 -2.05,0.05 -2.03,-0.18 -2.01,-0.43 -1.93,-0.66 -1.84,-0.90 -1.71,-1.11 -1.57,-1.31 -1.39,-1.48 -1.21,-1.65 -1.00,-1.78 -0.78,-1.90 -0.54,-1.96 -0.30,-2.03 -0.30,-2.03 L -0.30,-2.03 Z"/></g><g transform="translate(89.63833618164062 18.63216361032903) rotate(0 -6.6043243408203125 20.789215087890625)" stroke="none"><path fill="#1e1e1e" d="M 1.96,0 Q 1.96,0 1.99,1.58 2.02,3.17 1.95,5.19 1.88,7.21 1.81,9.64 1.73,12.08 1.67,15.08 1.61,18.08 1.57,20.62 1.53,23.16 1.50,25.78 1.47,28.41 1.57,29.77 1.68,31.14 1.80,31.99 1.93,32.84 1.90,33.08 1.87,33.31 1.79,33.52 1.71,33.74 1.58,33.93 1.44,34.13 1.27,34.28 1.09,34.44 0.89,34.54 0.68,34.65 0.45,34.71 0.23,34.76 -0.00,34.76 -0.23,34.76 -0.45,34.71 -0.68,34.65 -0.89,34.54 -1.09,34.44 -1.27,34.28 -1.44,34.13 -1.58,33.93 -1.71,33.74 -1.79,33.52 -1.87,33.31 -1.90,33.08 -1.93,32.84 -2.39,31.59 -2.85,30.33 -3.95,28.62 -5.04,26.92 -5.69,26.05 -6.34,25.18 -7.62,23.74 -8.90,22.30 -9.69,23.75 -10.48,25.19 -11.51,26.58 -12.54,27.97 -13.18,29.32 -13.82,30.67 -14.12,32.56 -14.42,34.44 -14.46,35.91 -14.50,37.38 -12.57,37.53 -10.63,37.68 -9.41,37.83 -8.18,37.99 -6.86,38.09 -5.55,38.20 -4.14,38.22 -2.73,38.25 -0.08,37.58 2.56,36.91 3.10,36.83 3.64,36.75 4.18,36.85 4.72,36.96 5.20,37.22 5.68,37.49 6.05,37.90 6.41,38.31 6.63,38.81 6.85,39.31 6.90,39.86 6.94,40.41 6.81,40.94 6.68,41.47 6.39,41.93 6.09,42.40 5.67,42.74 5.24,43.09 4.73,43.28 4.21,43.47 3.67,43.48 3.12,43.50 2.59,43.34 2.07,43.18 1.62,42.86 1.17,42.55 0.85,42.10 0.53,41.66 0.37,41.13 0.21,40.61 0.22,40.06 0.23,39.51 0.42,39.00 0.61,38.48 0.95,38.05 1.29,37.63 1.75,37.33 2.21,37.03 2.75,36.90 3.28,36.76 3.82,36.81 4.37,36.85 4.88,37.07 5.38,37.28 5.79,37.65 6.20,38.01 6.47,38.49 6.74,38.96 6.85,39.50 6.95,40.04 6.88,40.58 6.81,41.13 6.56,41.62 6.32,42.11 5.94,42.50 5.55,42.89 5.06,43.13 4.57,43.38 4.57,43.38 4.57,43.38 2.09,44.06 -0.38,44.74 -1.62,44.80 -2.86,44.86 -4.47,44.81 -6.08,44.76 -7.46,44.62 -8.85,44.48 -10.40,44.24 -11.94,44.00 -13.91,43.55 -15.87,43.10 -17.49,42.29 -19.11,41.47 -19.74,40.56 -20.36,39.64 -20.49,38.40 -20.62,37.16 -20.50,35.52 -20.38,33.89 -20.26,32.24 -20.14,30.59 -19.82,29.40 -19.49,28.21 -19.04,27.21 -18.59,26.21 -18.04,25.28 -17.48,24.35 -16.36,22.92 -15.25,21.49 -13.97,19.92 -12.69,18.36 -11.25,17.41 -9.81,16.46 -8.41,16.71 -7.02,16.96 -5.98,17.86 -4.95,18.77 -4.19,19.67 -3.43,20.57 -2.82,21.44 -2.21,22.31 -1.54,23.33 -0.87,24.36 -0.24,25.46 0.38,26.56 0.89,27.67 1.40,28.78 1.67,30.81 1.93,32.84 1.90,33.08 1.87,33.31 1.79,33.52 1.71,33.74 1.58,33.93 1.44,34.13 1.27,34.28 1.09,34.44 0.89,34.54 0.68,34.65 0.45,34.71 0.23,34.76 0.00,34.76 -0.23,34.76 -0.45,34.71 -0.68,34.65 -0.89,34.54 -1.09,34.44 -1.27,34.28 -1.44,34.13 -1.58,33.93 -1.71,33.74 -1.79,33.52 -1.87,33.31 -1.90,33.08 -1.93,32.84 -1.80,31.99 -1.68,31.14 -1.57,29.77 -1.47,28.41 -1.50,25.78 -1.53,23.16 -1.57,20.62 -1.61,18.08 -1.67,15.08 -1.73,12.08 -1.81,9.64 -1.88,7.21 -1.95,5.19 -2.02,3.17 -1.99,1.58 -1.96,0 -1.93,-0.23 -1.90,-0.47 -1.82,-0.69 -1.74,-0.91 -1.60,-1.10 -1.47,-1.30 -1.29,-1.46 -1.11,-1.61 -0.90,-1.72 -0.69,-1.83 -0.46,-1.89 -0.23,-1.95 0.00,-1.95 0.23,-1.95 0.46,-1.89 0.69,-1.83 0.90,-1.72 1.11,-1.61 1.29,-1.46 1.47,-1.30 1.60,-1.10 1.74,-0.91 1.82,-0.69 1.90,-0.47 1.93,-0.23 1.96,0.00 1.96,0.00 L 1.96,0 Z"/></g><g transform="translate(110.64097578685221 36.87638571594728) rotate(0 2.9760703027844144 8.842444322009264)" stroke="none"><path fill="#1e1e1e" d="M 0.33,2.47 Q 0.33,2.47 -1.01,2.65 -2.36,2.84 -3.15,3.63 -3.93,4.42 -4.54,5.91 -5.14,7.39 -5.47,9.74 -5.81,12.08 -5.35,13.21 -4.89,14.34 -2.43,14.60 0.02,14.85 1.54,14.82 3.07,14.80 4.36,14.56 5.65,14.33 6.66,13.98 7.66,13.64 9.04,12.84 10.42,12.05 10.90,10.88 11.39,9.71 10.97,8.38 10.56,7.04 9.59,6.27 8.62,5.51 7.40,5.11 6.17,4.72 4.59,4.60 3.00,4.48 1.61,4.52 0.22,4.56 -0.26,4.50 -0.75,4.45 -1.20,4.24 -1.65,4.03 -2.01,3.69 -2.37,3.34 -2.60,2.91 -2.83,2.47 -2.91,1.98 -2.99,1.49 -2.91,1.00 -2.83,0.51 -2.59,0.07 -2.36,-0.35 -2.00,-0.69 -1.64,-1.03 -1.19,-1.24 -0.74,-1.45 -0.24,-1.50 0.24,-1.55 0.72,-1.44 1.21,-1.33 1.63,-1.08 2.06,-0.82 2.38,-0.44 2.69,-0.06 2.88,0.39 3.06,0.85 3.08,1.34 3.11,1.84 2.97,2.32 2.84,2.79 2.56,3.20 2.28,3.61 1.89,3.91 1.49,4.21 1.02,4.37 0.55,4.52 0.05,4.52 -0.43,4.52 -0.90,4.36 -1.37,4.20 -1.76,3.90 -2.16,3.60 -2.43,3.19 -2.71,2.78 -2.84,2.30 -2.97,1.82 -2.94,1.32 -2.92,0.83 -2.73,0.37 -2.55,-0.08 -2.22,-0.46 -1.90,-0.83 -1.48,-1.09 -1.05,-1.34 -0.57,-1.45 -0.08,-1.55 -0.08,-1.55 -0.08,-1.55 2.68,-1.47 5.44,-1.40 6.67,-1.21 7.90,-1.02 8.99,-0.65 10.08,-0.28 11.14,0.28 12.20,0.85 13.21,1.70 14.22,2.55 15.07,3.73 15.91,4.92 16.39,6.36 16.87,7.80 16.91,9.51 16.95,11.21 16.57,12.27 16.19,13.33 15.54,14.27 14.90,15.22 13.14,16.43 11.39,17.63 10.28,18.07 9.16,18.51 7.86,18.88 6.55,19.24 4.94,19.54 3.33,19.83 1.47,19.98 -0.38,20.13 -2.20,20.03 -4.02,19.94 -5.54,19.53 -7.06,19.12 -8.08,18.34 -9.11,17.56 -9.82,16.29 -10.53,15.01 -10.74,13.41 -10.95,11.81 -10.92,9.67 -10.89,7.54 -10.56,6.42 -10.24,5.31 -9.75,4.21 -9.26,3.11 -8.52,1.93 -7.77,0.74 -6.71,-0.17 -5.66,-1.09 -4.38,-1.59 -3.10,-2.10 -1.71,-2.28 -0.33,-2.47 -0.03,-2.47 0.26,-2.47 0.55,-2.41 0.85,-2.34 1.12,-2.20 1.38,-2.07 1.61,-1.87 1.84,-1.67 2.01,-1.43 2.19,-1.18 2.30,-0.90 2.41,-0.62 2.45,-0.33 2.49,-0.03 2.46,0.26 2.42,0.56 2.32,0.84 2.22,1.12 2.05,1.37 1.88,1.62 1.66,1.82 1.44,2.03 1.17,2.17 0.91,2.31 0.62,2.39 0.33,2.47 0.33,2.47 L 0.33,2.47 Z"/></g><g transform="translate(123.73012034245804 33.83796073879333) rotate(0 12.357237663098601 5.721730743914819)" stroke="none"><path fill="#1e1e1e" d="M 2.01,-0.56 Q 2.01,-0.56 2.54,1.68 3.06,3.92 3.50,5.23 3.94,6.54 4.65,8.61 5.35,10.69 5.72,12.22 6.09,13.74 6.37,14.96 6.65,16.18 6.78,16.44 6.91,16.70 6.93,17.00 6.95,17.29 6.90,17.58 6.85,17.87 6.73,18.14 6.62,18.40 6.44,18.64 6.26,18.87 6.03,19.05 5.80,19.24 5.53,19.36 5.27,19.48 4.98,19.54 4.69,19.59 4.40,19.58 4.10,19.56 3.82,19.48 3.54,19.39 3.29,19.24 3.04,19.09 2.83,18.89 2.62,18.68 2.46,18.43 2.31,18.18 2.22,17.90 2.13,17.62 2.53,13.52 2.93,9.41 3.36,6.26 3.79,3.10 4.09,1.14 4.40,-0.81 4.57,-2.09 4.74,-3.36 5.18,-4.87 5.62,-6.38 6.62,-7.38 7.62,-8.38 8.90,-8.93 10.17,-9.47 12.08,-9.34 13.98,-9.21 15.71,-7.65 17.43,-6.09 18.63,-4.51 19.82,-2.94 20.81,-1.27 21.81,0.39 22.61,1.92 23.42,3.46 24.06,4.85 24.69,6.24 25.18,7.44 25.66,8.63 26.27,10.29 26.89,11.94 26.96,12.33 27.04,12.72 26.99,13.12 26.93,13.51 26.76,13.87 26.58,14.23 26.30,14.51 26.02,14.80 25.66,14.97 25.30,15.15 24.91,15.21 24.51,15.26 24.12,15.19 23.73,15.11 23.38,14.92 23.03,14.72 22.76,14.43 22.49,14.13 22.34,13.76 22.18,13.40 22.14,13.00 22.11,12.60 22.20,12.21 22.30,11.83 22.51,11.49 22.73,11.15 23.04,10.90 23.35,10.65 23.72,10.51 24.10,10.37 24.50,10.36 24.90,10.35 25.28,10.46 25.66,10.58 25.99,10.81 26.31,11.04 26.55,11.37 26.78,11.69 26.90,12.07 27.02,12.45 27.01,12.85 27.00,13.25 26.86,13.63 26.72,14.00 26.47,14.32 26.23,14.63 25.89,14.84 25.55,15.06 25.17,15.16 24.78,15.26 24.38,15.22 23.98,15.19 23.61,15.04 23.25,14.88 22.95,14.61 22.65,14.35 22.45,14.00 22.26,13.65 22.26,13.65 22.26,13.65 21.70,11.97 21.15,10.30 20.79,9.21 20.44,8.13 19.90,6.88 19.37,5.63 18.62,4.27 17.87,2.91 16.92,1.54 15.97,0.17 14.91,-1.02 13.86,-2.22 12.02,-3.22 10.19,-4.22 9.40,-3.40 8.62,-2.58 8.31,-1.45 8.00,-0.32 7.77,1.58 7.54,3.49 7.32,6.59 7.11,9.69 7.01,13.20 6.91,16.70 6.93,17.00 6.95,17.29 6.90,17.58 6.85,17.87 6.73,18.14 6.62,18.40 6.44,18.64 6.26,18.87 6.03,19.05 5.80,19.24 5.53,19.36 5.27,19.48 4.98,19.54 4.69,19.59 4.40,19.58 4.10,19.56 3.82,19.48 3.54,19.39 3.29,19.24 3.04,19.09 2.83,18.89 2.62,18.68 2.46,18.43 2.31,18.18 2.22,17.90 2.13,17.62 2.07,17.35 2.01,17.08 1.83,15.94 1.66,14.79 1.32,13.34 0.98,11.89 0.53,9.77 0.07,7.65 -0.24,6.29 -0.56,4.94 -1.29,2.75 -2.01,0.56 -2.05,0.31 -2.09,0.06 -2.07,-0.18 -2.04,-0.43 -1.96,-0.67 -1.88,-0.91 -1.74,-1.12 -1.61,-1.33 -1.42,-1.51 -1.24,-1.68 -1.02,-1.80 -0.80,-1.93 -0.56,-2.00 -0.31,-2.07 -0.06,-2.07 0.18,-2.08 0.43,-2.03 0.67,-1.98 0.90,-1.87 1.13,-1.76 1.32,-1.60 1.52,-1.43 1.67,-1.23 1.82,-1.03 1.91,-0.80 2.01,-0.56 2.01,-0.56 L 2.01,-0.56 Z"/></g><g transform="translate(138.82521744106336 19.825522247351444) rotate(0 16.60308396677513 -0.12819622924592977)" stroke="none"><path fill="#1e1e1e" d="M -0.03,-1.95 Q -0.03,-1.95 3.59,-1.93 7.23,-1.92 12.15,-1.89 17.08,-1.86 20.15,-1.83 23.22,-1.79 25.46,-1.77 27.69,-1.74 29.97,-1.84 32.26,-1.95 32.53,-1.91 32.80,-1.86 33.04,-1.73 33.29,-1.61 33.48,-1.41 33.66,-1.21 33.78,-0.96 33.90,-0.71 33.93,-0.43 33.96,-0.16 33.90,0.10 33.84,0.37 33.70,0.60 33.56,0.84 33.35,1.02 33.14,1.20 32.88,1.30 32.63,1.40 32.35,1.42 32.08,1.43 31.81,1.36 31.55,1.28 31.32,1.13 31.09,0.98 30.92,0.76 30.76,0.54 30.67,0.28 30.58,0.02 30.58,-0.25 30.58,-0.52 30.67,-0.78 30.76,-1.04 30.92,-1.26 31.09,-1.48 31.32,-1.64 31.54,-1.79 31.81,-1.87 32.07,-1.94 32.35,-1.93 32.62,-1.91 32.88,-1.81 33.13,-1.71 33.34,-1.53 33.55,-1.35 33.70,-1.12 33.84,-0.88 33.90,-0.61 33.96,-0.34 33.93,-0.07 33.90,0.19 33.78,0.44 33.67,0.69 33.48,0.89 33.29,1.09 33.05,1.22 32.80,1.35 32.53,1.40 32.26,1.44 32.26,1.44 32.26,1.44 29.98,1.34 27.70,1.24 25.47,1.28 23.24,1.32 20.17,1.38 17.11,1.44 12.20,1.53 7.30,1.63 3.67,1.79 0.03,1.95 -0.19,1.92 -0.42,1.90 -0.65,1.82 -0.87,1.74 -1.06,1.61 -1.26,1.48 -1.42,1.31 -1.58,1.14 -1.69,0.93 -1.81,0.72 -1.87,0.50 -1.93,0.27 -1.93,0.03 -1.94,-0.19 -1.89,-0.42 -1.83,-0.65 -1.73,-0.86 -1.62,-1.07 -1.47,-1.25 -1.32,-1.43 -1.13,-1.57 -0.94,-1.70 -0.72,-1.79 -0.50,-1.88 -0.27,-1.91 -0.03,-1.95 -0.03,-1.95 L -0.03,-1.95 Z"/></g><g transform="translate(154.40193101457098 10) rotate(0 0 15.37141903611645)" stroke="none"><path fill="#1e1e1e" d="M 2.10,0 Q 2.10,0 2.11,1.56 2.13,3.13 2.10,4.94 2.06,6.76 1.96,8.90 1.86,11.05 1.79,13.15 1.72,15.26 1.67,18.06 1.61,20.86 1.64,22.69 1.67,24.51 1.76,25.79 1.85,27.06 1.86,28.86 1.87,30.65 1.82,30.95 1.77,31.25 1.63,31.52 1.49,31.78 1.27,31.99 1.05,32.20 0.77,32.33 0.50,32.46 0.20,32.49 -0.10,32.52 -0.39,32.46 -0.69,32.39 -0.95,32.24 -1.21,32.08 -1.41,31.85 -1.60,31.62 -1.72,31.33 -1.83,31.05 -1.84,30.75 -1.86,30.45 -1.78,30.15 -1.70,29.86 -1.53,29.61 -1.36,29.36 -1.12,29.17 -0.87,28.99 -0.59,28.89 -0.30,28.80 0.00,28.80 0.30,28.80 0.59,28.89 0.87,28.99 1.12,29.17 1.36,29.36 1.53,29.61 1.70,29.86 1.78,30.15 1.86,30.45 1.84,30.75 1.83,31.05 1.72,31.33 1.60,31.62 1.41,31.85 1.21,32.08 0.95,32.24 0.69,32.39 0.39,32.46 0.10,32.52 -0.20,32.49 -0.50,32.46 -0.77,32.33 -1.05,32.20 -1.27,31.99 -1.49,31.78 -1.63,31.52 -1.77,31.25 -1.82,30.95 -1.87,30.65 -1.87,30.65 -1.87,30.65 -1.86,28.86 -1.85,27.06 -1.76,25.79 -1.67,24.51 -1.64,22.69 -1.61,20.86 -1.67,18.06 -1.72,15.26 -1.79,13.15 -1.86,11.05 -1.96,8.90 -2.06,6.76 -2.10,4.94 -2.13,3.13 -2.11,1.56 -2.10,0 -2.06,-0.25 -2.03,-0.50 -1.94,-0.73 -1.85,-0.97 -1.71,-1.18 -1.57,-1.39 -1.38,-1.56 -1.19,-1.72 -0.96,-1.84 -0.74,-1.96 -0.49,-2.02 -0.25,-2.08 0.00,-2.08 0.25,-2.08 0.49,-2.02 0.74,-1.96 0.96,-1.84 1.19,-1.72 1.38,-1.56 1.57,-1.39 1.71,-1.18 1.85,-0.97 1.94,-0.73 2.03,-0.50 2.06,-0.25 2.10,0.00 2.10,0.00 L 2.10,0 Z"/></g><g transform="translate(26.204260761897444 87.30489692016133) rotate(0 12.937554204592146 13.67032392212272)" stroke="none"><path fill="#1e1e1e" d="M 2.25,0.04 Q 2.25,0.04 2.17,1.82 2.10,3.60 2.12,4.97 2.14,6.34 2.14,7.88 2.14,9.43 2.06,11.37 1.98,13.32 1.88,15.45 1.77,17.57 1.85,18.70 1.93,19.82 2.02,20.52 2.11,21.21 2.07,21.48 2.04,21.74 1.95,21.99 1.85,22.25 1.70,22.47 1.54,22.69 1.34,22.87 1.14,23.04 0.90,23.17 0.67,23.29 0.41,23.36 0.15,23.42 -0.11,23.42 -0.38,23.42 -0.64,23.36 -0.90,23.29 -1.14,23.17 -1.38,23.04 -1.58,22.86 -1.78,22.69 -1.93,22.46 -2.09,22.24 -2.18,21.99 -2.28,21.74 -2.31,21.47 -2.34,21.21 -1.82,19.18 -1.30,17.15 -0.58,15.48 0.12,13.80 0.79,12.25 1.47,10.69 2.06,9.33 2.66,7.98 3.16,6.88 3.66,5.78 5.96,4.10 8.27,2.42 9.95,4.38 11.64,6.34 12.37,8.26 13.10,10.17 13.75,12.14 14.41,14.11 15.04,15.96 15.66,17.80 16.23,19.36 16.80,20.92 17.28,22.14 17.76,23.35 18.31,24.52 18.86,25.69 19.01,25.90 19.16,26.11 19.24,26.40 19.31,26.69 19.31,26.99 19.31,27.29 19.24,27.58 19.17,27.87 19.04,28.14 18.90,28.40 18.70,28.63 18.50,28.85 18.26,29.02 18.01,29.20 17.74,29.30 17.46,29.41 17.16,29.45 16.86,29.49 16.57,29.45 16.27,29.42 15.99,29.31 15.71,29.21 15.46,29.04 15.22,28.87 15.02,28.65 14.82,28.43 14.68,28.16 14.54,27.90 15.01,26.44 15.49,24.99 16.28,22.62 17.07,20.25 17.95,18.02 18.83,15.79 20.02,12.54 21.20,9.29 21.98,7.16 22.76,5.04 23.44,2.69 24.12,0.35 24.25,0.09 24.38,-0.17 24.59,-0.37 24.80,-0.58 25.07,-0.70 25.33,-0.83 25.62,-0.87 25.91,-0.91 26.20,-0.85 26.48,-0.79 26.74,-0.65 26.99,-0.50 27.19,-0.28 27.38,-0.06 27.49,0.20 27.61,0.47 27.63,0.76 27.65,1.05 27.58,1.34 27.50,1.62 27.34,1.87 27.18,2.11 26.95,2.29 26.73,2.48 26.45,2.57 26.17,2.67 25.88,2.68 25.59,2.68 25.31,2.60 25.03,2.51 24.79,2.34 24.56,2.16 24.39,1.92 24.22,1.68 24.13,1.40 24.05,1.12 24.06,0.83 24.07,0.54 24.17,0.26 24.28,-0.00 24.46,-0.23 24.65,-0.46 24.90,-0.61 25.14,-0.77 25.43,-0.84 25.71,-0.90 26.01,-0.88 26.30,-0.85 26.57,-0.73 26.83,-0.62 27.05,-0.42 27.27,-0.22 27.41,0.03 27.55,0.28 27.60,0.57 27.66,0.86 27.62,1.15 27.57,1.44 27.57,1.44 27.57,1.44 26.78,3.77 25.98,6.10 25.34,8.28 24.69,10.45 23.69,13.77 22.69,17.08 22.04,19.42 21.39,21.75 20.84,23.75 20.28,25.75 19.54,27.15 18.79,28.55 18.98,27.33 19.16,26.11 19.24,26.40 19.31,26.69 19.31,26.99 19.31,27.29 19.24,27.58 19.17,27.87 19.04,28.14 18.90,28.40 18.70,28.63 18.50,28.85 18.26,29.02 18.01,29.20 17.74,29.30 17.46,29.41 17.16,29.45 16.86,29.49 16.57,29.45 16.27,29.42 15.99,29.31 15.71,29.21 15.46,29.04 15.22,28.87 15.02,28.65 14.82,28.43 14.68,28.16 14.54,27.90 14.44,27.67 14.35,27.43 14.00,26.11 13.64,24.78 13.27,23.55 12.90,22.33 12.36,20.79 11.81,19.25 11.08,17.48 10.35,15.72 9.52,13.92 8.68,12.12 7.86,10.52 7.03,8.92 6.36,7.88 5.69,6.84 6.79,7.37 7.89,7.90 7.34,8.89 6.80,9.87 6.19,11.14 5.58,12.41 4.97,13.94 4.35,15.47 3.76,17.09 3.17,18.72 2.64,19.96 2.11,21.21 2.07,21.48 2.04,21.74 1.95,21.99 1.85,22.24 1.70,22.47 1.54,22.69 1.34,22.87 1.14,23.04 0.90,23.17 0.67,23.29 0.41,23.36 0.15,23.42 -0.11,23.42 -0.38,23.42 -0.64,23.36 -0.90,23.29 -1.14,23.17 -1.38,23.04 -1.58,22.86 -1.78,22.69 -1.93,22.46 -2.09,22.24 -2.18,21.99 -2.28,21.74 -2.31,21.47 -2.34,21.21 -2.25,20.52 -2.17,19.82 -2.08,18.70 -2.00,17.57 -2.11,15.44 -2.21,13.31 -2.28,11.36 -2.36,9.41 -2.35,7.85 -2.34,6.29 -2.29,4.91 -2.24,3.52 -2.24,1.74 -2.25,-0.04 -2.21,-0.31 -2.17,-0.58 -2.07,-0.83 -1.97,-1.08 -1.81,-1.30 -1.65,-1.52 -1.45,-1.70 -1.24,-1.87 -1.00,-1.99 -0.75,-2.12 -0.49,-2.18 -0.22,-2.24 0.04,-2.23 0.31,-2.22 0.57,-2.15 0.83,-2.08 1.07,-1.95 1.31,-1.82 1.51,-1.64 1.71,-1.46 1.86,-1.23 2.01,-1.00 2.10,-0.75 2.19,-0.49 2.22,-0.22 2.25,0.04 2.25,0.04 L 2.25,0.04 Z"/></g><g transform="translate(69.66205307779552 97.16333994495093) rotate(0 -1.316519768910922 9.04944227168886)" stroke="none"><path fill="#1e1e1e" d="M -0.07,2.53 Q -0.07,2.53 -1.29,2.52 -2.51,2.50 -3.92,2.57 -5.33,2.63 -6.40,2.69 -7.46,2.76 -8.95,4.54 -10.43,6.32 -10.97,7.51 -11.51,8.70 -11.86,9.82 -12.22,10.94 -12.41,12.65 -12.60,14.36 -13.72,14.08 -14.84,13.79 -13.72,12.73 -12.59,11.68 -10.76,9.86 -8.92,8.04 -8.11,6.96 -7.30,5.87 -6.41,4.25 -5.52,2.63 -5.09,1.61 -4.65,0.58 -4.15,-0.39 -3.65,-1.37 -2.43,-2.28 -1.21,-3.19 -0.04,-3.14 1.12,-3.10 2.51,-1.90 3.91,-0.70 4.62,0.31 5.34,1.33 6.20,2.70 7.06,4.06 8.03,5.69 9.00,7.31 9.89,8.76 10.78,10.22 11.52,11.38 12.26,12.55 13.58,14.59 14.91,16.63 15.08,17.01 15.26,17.40 15.30,17.83 15.34,18.25 15.25,18.67 15.15,19.08 14.93,19.45 14.70,19.81 14.38,20.08 14.05,20.36 13.65,20.51 13.25,20.67 12.83,20.69 12.40,20.70 11.99,20.59 11.58,20.47 11.23,20.22 10.88,19.98 10.62,19.64 10.37,19.30 10.24,18.89 10.10,18.49 10.11,18.06 10.11,17.63 10.25,17.23 10.39,16.83 10.65,16.49 10.92,16.15 11.27,15.92 11.63,15.68 12.04,15.57 12.45,15.46 12.88,15.49 13.30,15.51 13.70,15.68 14.09,15.84 14.42,16.12 14.74,16.40 14.96,16.76 15.17,17.13 15.26,17.55 15.35,17.97 15.30,18.39 15.25,18.82 15.06,19.20 14.88,19.59 14.58,19.89 14.29,20.20 13.91,20.40 13.53,20.59 13.11,20.66 12.68,20.72 12.26,20.65 11.84,20.58 11.47,20.37 11.09,20.17 10.80,19.86 10.51,19.54 10.51,19.54 10.51,19.54 9.19,17.44 7.87,15.33 7.17,14.21 6.46,13.09 5.49,11.76 4.53,10.42 3.35,8.98 2.18,7.53 1.19,6.29 0.20,5.05 -0.71,3.82 -1.63,2.59 -0.74,3.32 0.14,4.04 -0.68,5.50 -1.51,6.95 -2.17,8.00 -2.84,9.04 -3.72,10.34 -4.60,11.63 -5.78,13.19 -6.95,14.75 -7.88,15.60 -8.80,16.45 -9.81,17.26 -10.82,18.07 -11.90,18.69 -12.97,19.32 -14.84,19.11 -16.72,18.90 -17.51,17.01 -18.30,15.12 -18.09,13.45 -17.88,11.78 -17.61,10.55 -17.35,9.31 -16.91,7.93 -16.46,6.56 -15.81,5.00 -15.16,3.44 -14.07,1.53 -12.98,-0.36 -11.93,-1.24 -10.88,-2.12 -9.16,-2.56 -7.45,-2.99 -6.36,-2.92 -5.28,-2.85 -3.82,-2.74 -2.37,-2.64 -1.15,-2.58 0.07,-2.53 0.37,-2.49 0.67,-2.44 0.95,-2.32 1.24,-2.21 1.48,-2.03 1.73,-1.85 1.93,-1.61 2.12,-1.38 2.26,-1.10 2.39,-0.83 2.46,-0.53 2.52,-0.23 2.51,0.06 2.50,0.37 2.42,0.67 2.34,0.96 2.19,1.23 2.04,1.49 1.83,1.72 1.62,1.94 1.37,2.11 1.11,2.27 0.82,2.37 0.53,2.47 0.23,2.50 -0.07,2.53 -0.07,2.53 L -0.07,2.53 Z"/></g><g transform="translate(88.7830027844272 95.10017409730878) rotate(0 0 12.784264888841719)" stroke="none"><path fill="#1e1e1e" d="M 2.06,0 Q 2.06,0 2.02,1.90 1.97,3.81 1.88,5.95 1.80,8.10 1.73,11.38 1.66,14.66 1.62,16.88 1.57,19.09 1.64,22.03 1.72,24.96 1.68,25.24 1.63,25.51 1.50,25.76 1.37,26.01 1.17,26.20 0.96,26.39 0.71,26.51 0.46,26.63 0.18,26.66 -0.09,26.69 -0.36,26.63 -0.63,26.57 -0.87,26.42 -1.11,26.28 -1.29,26.07 -1.47,25.85 -1.58,25.59 -1.68,25.33 -1.70,25.05 -1.71,24.78 -1.64,24.51 -1.56,24.24 -1.40,24.01 -1.25,23.78 -1.03,23.61 -0.80,23.44 -0.54,23.35 -0.27,23.26 0.00,23.26 0.27,23.26 0.54,23.35 0.80,23.44 1.03,23.61 1.25,23.78 1.40,24.01 1.56,24.24 1.64,24.51 1.71,24.78 1.70,25.06 1.68,25.33 1.58,25.59 1.47,25.85 1.29,26.07 1.11,26.28 0.87,26.42 0.63,26.57 0.36,26.63 0.09,26.69 -0.18,26.66 -0.46,26.63 -0.71,26.51 -0.96,26.39 -1.17,26.20 -1.37,26.01 -1.50,25.76 -1.63,25.51 -1.68,25.24 -1.72,24.96 -1.72,24.96 -1.72,24.96 -1.64,22.03 -1.57,19.09 -1.62,16.88 -1.66,14.66 -1.73,11.38 -1.80,8.10 -1.88,5.95 -1.97,3.81 -2.02,1.90 -2.06,0 -2.03,-0.24 -2.00,-0.49 -1.91,-0.72 -1.82,-0.96 -1.68,-1.16 -1.54,-1.37 -1.36,-1.53 -1.17,-1.70 -0.95,-1.81 -0.73,-1.93 -0.49,-1.99 -0.24,-2.05 0.00,-2.05 0.24,-2.05 0.49,-1.99 0.73,-1.93 0.95,-1.81 1.17,-1.70 1.36,-1.53 1.54,-1.37 1.68,-1.16 1.82,-0.96 1.91,-0.72 2.00,-0.49 2.03,-0.24 2.06,0.00 2.06,0.00 L 2.06,0 Z"/></g><g transform="translate(83.03875853397466 87.38112795573153) rotate(0 0.5092891413735714 0.19054200851215342)" stroke="none"><path fill="#1e1e1e" d="M 1.63,-1.80 Q 1.63,-1.80 1.94,-1.58 2.25,-1.36 2.47,-1.05 2.69,-0.74 2.80,-0.37 2.91,-0.01 2.90,0.36 2.88,0.74 2.75,1.09 2.62,1.45 2.38,1.74 2.14,2.04 1.82,2.24 1.50,2.45 1.13,2.54 0.76,2.63 0.39,2.60 0.01,2.56 -0.33,2.41 -0.68,2.26 -0.96,2.01 -1.24,1.75 -1.43,1.42 -1.61,1.09 -1.69,0.72 -1.76,0.34 -1.70,-0.02 -1.65,-0.40 -1.48,-0.74 -1.31,-1.08 -1.04,-1.35 -0.77,-1.61 -0.43,-1.78 -0.09,-1.95 0.28,-2.00 0.65,-2.05 1.02,-1.97 1.40,-1.90 1.73,-1.71 2.06,-1.53 2.31,-1.24 2.56,-0.96 2.71,-0.61 2.86,-0.26 2.89,0.11 2.92,0.49 2.83,0.85 2.73,1.22 2.53,1.54 2.32,1.86 2.03,2.10 1.73,2.33 1.37,2.46 1.01,2.59 0.64,2.60 0.26,2.61 -0.10,2.50 -0.46,2.39 -0.46,2.39 -0.46,2.39 -0.74,2.30 -1.02,2.21 -1.27,2.05 -1.52,1.90 -1.72,1.69 -1.93,1.48 -2.08,1.22 -2.23,0.97 -2.31,0.69 -2.40,0.41 -2.41,0.12 -2.43,-0.17 -2.37,-0.46 -2.31,-0.74 -2.19,-1.01 -2.07,-1.28 -1.88,-1.51 -1.70,-1.74 -1.47,-1.91 -1.23,-2.09 -0.96,-2.21 -0.70,-2.33 -0.41,-2.38 -0.12,-2.43 0.17,-2.41 0.46,-2.39 1.04,-2.09 L 1.63,-1.80 Z"/></g><g transform="translate(94.6727709254198 93.62773206206063) rotate(0 9.865363415183275 0.057168829125984644)" stroke="none"><path fill="#1e1e1e" d="M 0.04,-2.15 Q 0.04,-2.15 1.48,-2.14 2.92,-2.14 4.88,-2.05 6.85,-1.95 9.02,-1.85 11.19,-1.74 12.90,-1.76 14.61,-1.78 16.73,-1.86 18.85,-1.93 19.18,-1.88 19.51,-1.83 19.80,-1.67 20.09,-1.51 20.32,-1.27 20.55,-1.03 20.69,-0.73 20.83,-0.43 20.86,-0.10 20.90,0.22 20.83,0.55 20.76,0.87 20.58,1.15 20.41,1.44 20.16,1.65 19.91,1.87 19.60,1.99 19.29,2.11 18.96,2.13 18.63,2.15 18.31,2.06 17.99,1.97 17.71,1.78 17.44,1.60 17.24,1.33 17.04,1.07 16.93,0.75 16.82,0.44 16.82,0.11 16.82,-0.22 16.93,-0.53 17.04,-0.84 17.24,-1.11 17.44,-1.37 17.71,-1.56 17.99,-1.74 18.31,-1.83 18.63,-1.92 18.96,-1.90 19.29,-1.89 19.60,-1.76 19.91,-1.64 20.16,-1.42 20.41,-1.21 20.59,-0.92 20.76,-0.64 20.83,-0.31 20.90,0.00 20.86,0.33 20.83,0.66 20.69,0.96 20.55,1.26 20.32,1.50 20.09,1.74 19.80,1.90 19.50,2.05 19.17,2.11 18.85,2.16 18.85,2.16 18.85,2.16 16.73,2.08 14.60,2.00 12.89,1.98 11.18,1.96 9.00,2.05 6.82,2.14 4.82,2.21 2.82,2.27 1.38,2.21 -0.04,2.15 -0.30,2.11 -0.56,2.07 -0.80,1.97 -1.04,1.88 -1.25,1.72 -1.46,1.57 -1.63,1.37 -1.79,1.18 -1.91,0.94 -2.02,0.71 -2.08,0.46 -2.14,0.21 -2.13,-0.04 -2.12,-0.30 -2.06,-0.55 -1.99,-0.80 -1.86,-1.03 -1.74,-1.26 -1.56,-1.45 -1.38,-1.64 -1.17,-1.78 -0.95,-1.92 -0.71,-2.01 -0.46,-2.09 -0.20,-2.12 0.04,-2.15 0.04,-2.15 L 0.04,-2.15 Z"/></g><g transform="translate(102.59104959146629 80.03450200053149) rotate(0 -7.105427357601002e-15 22.543082756293387)" stroke="none"><path fill="#1e1e1e" d="M 2.10,0.02 Q 2.10,0.02 1.96,3.24 1.83,6.46 1.73,9.56 1.64,12.67 1.58,15.55 1.51,18.43 1.47,20.89 1.42,23.36 1.43,25.31 1.44,27.27 1.53,28.68 1.62,30.09 1.71,31.28 1.80,32.47 1.96,34.25 2.12,36.04 2.23,37.81 2.35,39.58 2.38,41.70 2.40,43.83 2.52,44.23 2.64,44.63 2.63,45.05 2.62,45.47 2.47,45.86 2.33,46.26 2.06,46.58 1.80,46.91 1.45,47.13 1.09,47.36 0.69,47.46 0.28,47.56 -0.13,47.52 -0.54,47.49 -0.93,47.32 -1.31,47.15 -1.62,46.87 -1.94,46.59 -2.14,46.23 -2.35,45.86 -2.42,45.45 -2.50,45.04 -2.44,44.63 -2.39,44.21 -2.20,43.84 -2.01,43.46 -1.72,43.17 -1.42,42.87 -1.04,42.68 -0.67,42.50 -0.25,42.44 0.15,42.39 0.56,42.47 0.98,42.55 1.34,42.76 1.70,42.96 1.98,43.27 2.26,43.59 2.43,43.97 2.59,44.36 2.62,44.78 2.66,45.19 2.55,45.60 2.45,46.01 2.23,46.36 2.00,46.71 1.67,46.97 1.34,47.23 0.95,47.38 0.56,47.52 0.14,47.53 -0.27,47.54 -0.67,47.42 -1.07,47.29 -1.41,47.05 -1.75,46.80 -1.99,46.46 -2.24,46.12 -2.24,46.12 -2.24,46.12 -2.41,42.85 -2.59,39.58 -2.47,37.81 -2.35,36.04 -2.19,34.25 -2.04,32.47 -1.95,31.28 -1.85,30.09 -1.76,28.68 -1.67,27.26 -1.66,25.31 -1.65,23.36 -1.69,20.89 -1.73,18.42 -1.78,15.53 -1.83,12.65 -1.90,9.54 -1.96,6.42 -2.03,3.20 -2.10,-0.02 -2.07,-0.27 -2.04,-0.52 -1.94,-0.76 -1.85,-0.99 -1.71,-1.20 -1.56,-1.41 -1.37,-1.58 -1.17,-1.74 -0.95,-1.86 -0.72,-1.98 -0.47,-2.03 -0.23,-2.09 0.02,-2.09 0.27,-2.09 0.52,-2.02 0.76,-1.96 0.99,-1.84 1.21,-1.72 1.40,-1.55 1.59,-1.38 1.73,-1.17 1.87,-0.96 1.96,-0.72 2.05,-0.48 2.08,-0.23 2.10,0.02 2.10,0.02 L 2.10,0.02 Z"/></g><g transform="translate(114.80537852440494 109.069311225722) rotate(0 -0.0589033742760563 5.346704292260796)" stroke="none"><path fill="#1e1e1e" d="M 2.47,0.05 Q 2.47,0.05 2.43,1.53 2.39,3.01 2.40,4.20 2.42,5.40 2.47,7.91 2.52,10.43 2.45,10.85 2.38,11.27 2.18,11.65 1.98,12.03 1.67,12.32 1.36,12.61 0.97,12.79 0.58,12.97 0.15,13.02 -0.26,13.06 -0.68,12.97 -1.10,12.88 -1.46,12.65 -1.83,12.43 -2.11,12.11 -2.38,11.78 -2.54,11.38 -2.70,10.98 -2.72,10.56 -2.74,10.13 -2.63,9.72 -2.51,9.30 -2.27,8.95 -2.03,8.60 -1.69,8.34 -1.35,8.08 -0.94,7.94 -0.53,7.81 -0.11,7.81 0.31,7.81 0.72,7.95 1.12,8.08 1.46,8.34 1.80,8.60 2.04,8.96 2.28,9.31 2.40,9.73 2.51,10.14 2.48,10.57 2.46,10.99 2.30,11.39 2.14,11.79 1.86,12.11 1.59,12.44 1.22,12.66 0.85,12.88 0.43,12.97 0.01,13.06 -0.40,13.01 -0.83,12.97 -1.21,12.79 -1.60,12.61 -1.91,12.31 -2.22,12.02 -2.42,11.64 -2.62,11.26 -2.69,10.84 -2.76,10.41 -2.76,10.41 -2.76,10.41 -2.68,7.87 -2.61,5.33 -2.57,4.12 -2.52,2.90 -2.50,1.42 -2.47,-0.05 -2.43,-0.35 -2.39,-0.64 -2.27,-0.92 -2.16,-1.20 -1.99,-1.44 -1.81,-1.68 -1.58,-1.87 -1.36,-2.07 -1.09,-2.20 -0.82,-2.33 -0.53,-2.40 -0.24,-2.46 0.05,-2.45 0.35,-2.45 0.64,-2.37 0.93,-2.29 1.19,-2.15 1.45,-2.00 1.67,-1.80 1.89,-1.59 2.05,-1.35 2.21,-1.10 2.31,-0.81 2.41,-0.53 2.44,-0.24 2.47,0.05 2.47,0.05 L 2.47,0.05 Z"/></g><g transform="translate(112.4667846971367 99.0116712568765) rotate(0 0.00005000000000165983 0.00005000000000165983)" stroke="none"><path fill="#1e1e1e" d="M 1.57,-1.57 Q 1.57,-1.57 1.77,-1.27 1.98,-0.98 2.09,-0.64 2.20,-0.29 2.19,0.05 2.18,0.41 2.05,0.75 1.93,1.09 1.70,1.37 1.48,1.65 1.18,1.84 0.87,2.04 0.52,2.12 0.18,2.21 -0.17,2.18 -0.53,2.15 -0.86,2.01 -1.19,1.87 -1.46,1.63 -1.73,1.39 -1.90,1.07 -2.08,0.76 -2.15,0.41 -2.21,0.05 -2.17,-0.29 -2.12,-0.65 -1.96,-0.97 -1.80,-1.29 -1.54,-1.54 -1.29,-1.80 -0.97,-1.96 -0.65,-2.12 -0.29,-2.17 0.06,-2.21 0.41,-2.15 0.76,-2.08 1.07,-1.90 1.39,-1.73 1.63,-1.46 1.87,-1.19 2.01,-0.86 2.15,-0.53 2.18,-0.17 2.21,0.18 2.12,0.52 2.03,0.87 1.84,1.18 1.65,1.48 1.37,1.70 1.09,1.93 0.75,2.05 0.41,2.18 0.05,2.19 -0.30,2.20 -0.64,2.09 -0.98,1.98 -1.27,1.77 -1.57,1.56 -1.57,1.57 -1.57,1.57 -1.73,1.35 -1.90,1.14 -2.01,0.90 -2.12,0.66 -2.16,0.39 -2.21,0.13 -2.20,-0.13 -2.18,-0.40 -2.10,-0.65 -2.02,-0.91 -1.88,-1.14 -1.74,-1.36 -1.55,-1.55 -1.36,-1.74 -1.14,-1.88 -0.91,-2.02 -0.65,-2.10 -0.40,-2.18 -0.13,-2.20 0.13,-2.21 0.39,-2.16 0.66,-2.12 0.90,-2.01 1.14,-1.90 1.35,-1.73 1.57,-1.57 1.57,-1.57 L 1.57,-1.57 Z"/></g><g transform="translate(121.20095782136762 106.67183181438438) rotate(0 8.919529287499508 6.083779239804912)" stroke="none"><path fill="#1e1e1e" d="M 2.47,0 Q 2.47,0 2.41,1.78 2.34,3.57 2.38,4.79 2.42,6.02 2.45,7.19 2.49,8.35 2.52,9.89 2.55,11.43 2.63,12.83 2.72,14.23 2.87,15.75 3.02,17.26 3.09,17.92 3.16,18.59 3.13,18.92 3.09,19.25 2.98,19.56 2.86,19.88 2.68,20.15 2.50,20.43 2.25,20.65 2.00,20.88 1.71,21.04 1.42,21.19 1.10,21.28 0.78,21.36 0.44,21.37 0.11,21.37 -0.20,21.30 -0.53,21.22 -0.82,21.07 -1.12,20.92 -1.37,20.70 -1.62,20.49 -1.81,20.22 -2.01,19.95 -2.13,19.64 -2.25,19.33 -2.30,19.00 -2.34,18.67 -2.40,17.35 -2.46,16.03 -2.45,14.79 -2.44,13.54 -2.35,11.78 -2.25,10.02 -2.14,8.16 -2.04,6.31 -1.95,4.74 -1.85,3.17 -1.67,1.79 -1.49,0.42 -1.23,-0.78 -0.98,-1.98 -0.49,-3.22 -0.00,-4.46 1.07,-6.00 2.15,-7.54 3.17,-8.25 4.19,-8.96 5.31,-9.25 6.42,-9.54 7.63,-9.52 8.84,-9.51 9.86,-9.14 10.89,-8.77 11.87,-8.12 12.86,-7.47 13.76,-6.68 14.66,-5.88 15.50,-4.92 16.33,-3.97 17.07,-2.79 17.81,-1.60 18.46,0.44 19.11,2.50 19.48,4.07 19.85,5.64 20.07,6.94 20.28,8.23 20.39,9.29 20.51,10.35 20.58,12.68 20.65,15.00 20.58,15.46 20.51,15.91 20.30,16.31 20.09,16.72 19.76,17.03 19.44,17.35 19.02,17.55 18.61,17.74 18.16,17.79 17.71,17.85 17.26,17.75 16.81,17.66 16.42,17.43 16.03,17.20 15.73,16.85 15.43,16.51 15.26,16.08 15.08,15.66 15.06,15.21 15.03,14.75 15.14,14.31 15.26,13.87 15.51,13.49 15.77,13.11 16.13,12.83 16.49,12.55 16.92,12.40 17.35,12.25 17.81,12.25 18.26,12.24 18.70,12.39 19.13,12.53 19.50,12.80 19.86,13.07 20.12,13.45 20.38,13.82 20.51,14.26 20.63,14.70 20.61,15.16 20.59,15.61 20.43,16.04 20.26,16.46 19.97,16.81 19.68,17.16 19.29,17.40 18.90,17.64 18.46,17.74 18.01,17.85 17.56,17.80 17.10,17.76 16.69,17.57 16.27,17.38 15.94,17.07 15.60,16.76 15.39,16.36 15.17,15.96 15.09,15.51 15.01,15.06 15.01,15.06 15.01,15.06 14.97,12.93 14.93,10.80 14.75,8.89 14.56,6.98 14.21,5.71 13.86,4.44 12.75,2.25 11.63,0.07 10.45,-1.14 9.26,-2.36 7.84,-3.04 6.42,-3.73 5.60,-3.04 4.79,-2.36 4.11,-0.59 3.43,1.17 3.23,2.30 3.02,3.42 2.96,4.88 2.90,6.33 2.99,8.18 3.07,10.02 3.17,11.78 3.27,13.54 3.28,14.79 3.29,16.03 3.23,17.31 3.16,18.59 3.13,18.92 3.09,19.25 2.98,19.56 2.86,19.88 2.68,20.15 2.50,20.43 2.25,20.65 2.00,20.88 1.71,21.04 1.42,21.19 1.10,21.28 0.78,21.36 0.45,21.37 0.11,21.37 -0.20,21.30 -0.52,21.22 -0.82,21.07 -1.12,20.92 -1.37,20.71 -1.62,20.49 -1.81,20.22 -2.01,19.95 -2.13,19.64 -2.25,19.33 -2.30,19.00 -2.34,18.67 -2.29,18.04 -2.24,17.41 -2.20,15.96 -2.15,14.52 -2.24,13.06 -2.32,11.61 -2.40,9.98 -2.49,8.35 -2.45,7.19 -2.42,6.02 -2.38,4.79 -2.34,3.57 -2.41,1.78 -2.47,0 -2.44,-0.29 -2.40,-0.59 -2.29,-0.87 -2.19,-1.15 -2.02,-1.39 -1.85,-1.64 -1.63,-1.84 -1.40,-2.03 -1.14,-2.17 -0.87,-2.31 -0.58,-2.38 -0.29,-2.45 0.00,-2.45 0.29,-2.45 0.58,-2.38 0.87,-2.31 1.14,-2.17 1.40,-2.03 1.63,-1.84 1.85,-1.64 2.02,-1.39 2.19,-1.15 2.29,-0.87 2.40,-0.59 2.44,-0.29 2.47,0.00 2.47,0.00 L 2.47,0 Z"/></g><g transform="translate(154.3638243918892 98.74318145785074) rotate(0 13.025046440982848 19.476931742048137)" stroke="none"><path fill="#1e1e1e" d="M 1.62,1.99 Q 1.62,1.99 1.01,2.54 0.40,3.09 -0.31,4.16 -1.03,5.24 -1.63,6.25 -2.23,7.25 -2.84,8.58 -3.45,9.91 -2.57,10.56 -1.69,11.22 -0.91,10.40 -0.13,9.58 0.45,8.29 1.03,7.00 1.24,5.81 1.44,4.62 1.44,3.29 1.43,1.96 1.24,0.95 1.05,-0.05 1.06,-0.48 1.06,-0.91 1.17,-1.32 1.28,-1.74 1.48,-2.12 1.69,-2.49 1.97,-2.81 2.26,-3.13 2.62,-3.37 2.97,-3.61 3.38,-3.75 3.78,-3.90 4.21,-3.95 4.63,-3.99 5.06,-3.94 5.48,-3.88 5.88,-3.72 6.28,-3.57 6.63,-3.32 6.98,-3.07 7.26,-2.75 7.54,-2.42 7.74,-2.04 7.93,-1.66 8.03,-1.24 8.13,-0.82 10.79,1.78 13.45,4.39 15.27,6.86 17.08,9.33 18.60,11.81 20.11,14.29 21.41,16.83 22.71,19.38 23.68,21.82 24.65,24.27 25.25,26.21 25.85,28.15 26.27,29.53 26.68,30.90 26.94,32.03 27.21,33.16 26.94,35.36 26.67,37.56 25.62,38.56 24.58,39.56 23.42,40.15 22.26,40.73 21.10,41.11 19.95,41.48 18.66,41.69 17.36,41.91 15.36,41.82 13.36,41.73 11.46,41.31 9.57,40.89 7.93,40.29 6.29,39.68 5.16,39.17 4.04,38.66 2.99,37.96 1.94,37.25 0.97,36.29 0.00,35.34 -0.74,34.13 -1.50,32.93 -1.95,31.46 -2.41,29.98 -2.59,28.39 -2.77,26.80 -2.69,25.06 -2.62,23.31 -2.15,21.50 -1.68,19.68 -0.76,17.97 0.15,16.25 1.41,14.73 2.67,13.21 4.21,11.89 5.74,10.57 8.43,9.07 11.13,7.58 12.94,6.76 14.75,5.93 16.04,5.41 17.32,4.89 18.47,4.55 19.62,4.21 21.22,3.88 22.83,3.55 24.28,3.46 25.74,3.37 27.06,3.38 28.38,3.39 30.44,3.49 32.50,3.59 32.96,3.71 33.42,3.83 33.81,4.09 34.20,4.34 34.50,4.71 34.79,5.08 34.95,5.53 35.10,5.97 35.11,6.44 35.12,6.91 34.98,7.36 34.84,7.81 34.56,8.19 34.28,8.57 33.89,8.84 33.51,9.11 33.06,9.25 32.61,9.38 32.14,9.36 31.67,9.35 31.23,9.18 30.78,9.01 30.42,8.71 30.06,8.42 29.81,8.02 29.56,7.62 29.45,7.16 29.34,6.70 29.38,6.23 29.42,5.76 29.61,5.33 29.80,4.90 30.12,4.55 30.44,4.21 30.85,3.98 31.26,3.75 31.73,3.67 32.19,3.58 32.66,3.65 33.12,3.72 33.54,3.93 33.96,4.14 34.29,4.48 34.62,4.82 34.83,5.24 35.03,5.66 35.09,6.13 35.15,6.60 35.06,7.06 34.96,7.52 34.73,7.93 34.49,8.34 34.14,8.65 33.79,8.96 33.35,9.14 32.92,9.32 32.45,9.36 31.98,9.39 31.98,9.39 31.98,9.39 29.43,9.18 26.88,8.98 25.70,8.73 24.51,8.48 23.35,8.43 22.19,8.38 20.41,8.57 18.64,8.77 17.51,9.08 16.38,9.38 14.76,10.17 13.14,10.97 10.91,12.41 8.68,13.85 7.48,14.99 6.29,16.13 5.35,17.34 4.42,18.55 3.78,19.75 3.15,20.95 2.83,22.22 2.51,23.50 2.50,24.86 2.48,26.22 2.79,28.29 3.11,30.35 4.04,31.77 4.97,33.18 6.46,34.21 7.94,35.24 9.24,35.72 10.55,36.21 11.98,36.48 13.41,36.75 15.03,36.69 16.64,36.63 18.42,36.34 20.20,36.06 21.59,35.60 22.98,35.13 22.95,33.47 22.93,31.81 22.69,30.52 22.46,29.23 21.88,27.48 21.29,25.73 20.24,23.54 19.19,21.36 17.79,19.11 16.38,16.86 14.74,14.77 13.11,12.68 11.11,10.63 9.12,8.58 6.74,6.47 4.36,4.36 3.42,3.52 2.49,2.67 1.77,1.31 1.05,-0.05 1.06,-0.48 1.06,-0.91 1.17,-1.32 1.28,-1.74 1.48,-2.12 1.69,-2.49 1.97,-2.81 2.26,-3.13 2.62,-3.37 2.97,-3.61 3.38,-3.75 3.78,-3.90 4.21,-3.95 4.63,-3.99 5.06,-3.94 5.48,-3.88 5.88,-3.72 6.28,-3.57 6.63,-3.32 6.98,-3.07 7.26,-2.75 7.54,-2.42 7.74,-2.04 7.93,-1.66 8.03,-1.24 8.12,-0.82 8.23,-0.04 8.34,0.74 8.39,1.82 8.44,2.90 8.38,4.22 8.32,5.54 8.13,6.59 7.94,7.64 7.61,8.84 7.28,10.04 6.72,11.21 6.16,12.38 5.35,13.34 4.54,14.30 3.28,15.38 2.01,16.46 0.00,17.00 -2.01,17.53 -3.45,17.15 -4.90,16.77 -6.00,16.13 -7.11,15.50 -8.12,14.24 -9.13,12.99 -9.16,11.39 -9.20,9.78 -8.80,8.67 -8.40,7.56 -7.51,6.03 -6.62,4.51 -5.94,3.47 -5.26,2.43 -4.13,0.72 -2.99,-0.97 -2.31,-1.48 -1.62,-1.99 -1.36,-2.16 -1.09,-2.32 -0.80,-2.42 -0.50,-2.52 -0.20,-2.54 0.10,-2.56 0.41,-2.51 0.72,-2.46 1.00,-2.34 1.29,-2.22 1.53,-2.03 1.78,-1.85 1.98,-1.61 2.17,-1.37 2.30,-1.09 2.44,-0.80 2.50,-0.50 2.56,-0.20 2.55,0.10 2.53,0.41 2.45,0.71 2.36,1.01 2.20,1.28 2.05,1.54 1.83,1.77 1.62,1.99 1.62,1.99 L 1.62,1.99 Z"/></g><g transform="translate(34.76095958571048 127.84052110676312) rotate(0 -2.8099212900701502 13.892922255981432)" stroke="none"><path fill="#1e1e1e" d="M -0.35,2.32 Q -0.35,2.32 -0.91,2.28 -1.47,2.25 -1.68,3.43 -1.90,4.62 -2.29,7.04 -2.68,9.47 -2.91,11.44 -3.14,13.41 -3.12,14.94 -3.10,16.48 -2.89,18.05 -2.69,19.63 -2.22,21.34 -1.75,23.06 -1.22,24.89 -0.69,26.72 -0.65,27.13 -0.62,27.55 -0.71,27.95 -0.81,28.35 -1.03,28.71 -1.25,29.06 -1.57,29.32 -1.89,29.59 -2.28,29.74 -2.66,29.88 -3.08,29.90 -3.49,29.92 -3.89,29.80 -4.29,29.68 -4.63,29.44 -4.97,29.21 -5.22,28.87 -5.47,28.54 -5.59,28.14 -5.72,27.74 -5.71,27.33 -5.71,26.91 -5.57,26.52 -5.43,26.13 -5.17,25.80 -4.92,25.48 -4.57,25.25 -4.22,25.02 -3.82,24.92 -3.42,24.81 -3.00,24.84 -2.59,24.87 -2.20,25.03 -1.82,25.19 -1.51,25.46 -1.20,25.73 -0.99,26.09 -0.78,26.45 -0.69,26.86 -0.61,27.27 -0.66,27.68 -0.71,28.09 -0.89,28.47 -1.07,28.84 -1.36,29.14 -1.66,29.44 -2.03,29.62 -2.40,29.81 -2.81,29.87 -3.22,29.94 -3.63,29.86 -4.04,29.79 -4.40,29.59 -4.76,29.39 -5.04,29.08 -5.33,28.78 -5.49,28.40 -5.66,28.02 -5.66,28.02 -5.66,28.02 -6.12,26.09 -6.57,24.16 -6.84,22.22 -7.12,20.28 -7.41,18.43 -7.71,16.59 -7.76,14.89 -7.82,13.20 -7.86,11.09 -7.91,8.98 -7.83,6.93 -7.76,4.88 -7.06,2.87 -6.35,0.87 -5.28,-0.35 -4.21,-1.59 -2.53,-2.10 -0.85,-2.60 -0.25,-2.46 0.35,-2.32 0.62,-2.24 0.89,-2.17 1.14,-2.03 1.39,-1.89 1.59,-1.69 1.80,-1.50 1.95,-1.26 2.11,-1.02 2.20,-0.76 2.29,-0.49 2.32,-0.21 2.34,0.07 2.30,0.35 2.26,0.63 2.15,0.89 2.04,1.15 1.87,1.38 1.71,1.61 1.49,1.79 1.27,1.97 1.02,2.09 0.76,2.22 0.48,2.28 0.21,2.33 -0.07,2.33 -0.35,2.32 -0.35,2.32 L -0.35,2.32 Z"/></g><g transform="translate(22.493789907667406 142.43103925722437) rotate(0 8.989606144120415 -0.36712441837966026)" stroke="none"><path fill="#1e1e1e" d="M -0.22,-2.65 Q -0.22,-2.65 0.84,-2.76 1.91,-2.88 3.39,-3.00 4.87,-3.13 6.03,-3.20 7.19,-3.27 8.87,-3.33 10.55,-3.38 12.34,-3.50 14.13,-3.62 15.98,-3.71 17.84,-3.81 18.34,-3.74 18.83,-3.68 19.28,-3.46 19.73,-3.24 20.08,-2.88 20.44,-2.53 20.66,-2.08 20.88,-1.64 20.95,-1.14 21.02,-0.65 20.93,-0.15 20.83,0.33 20.59,0.76 20.34,1.20 19.97,1.53 19.60,1.87 19.14,2.06 18.68,2.26 18.18,2.30 17.69,2.35 17.20,2.23 16.72,2.11 16.30,1.84 15.87,1.57 15.56,1.18 15.25,0.79 15.07,0.32 14.90,-0.14 14.89,-0.64 14.87,-1.14 15.02,-1.61 15.16,-2.09 15.45,-2.50 15.74,-2.90 16.15,-3.20 16.56,-3.49 17.03,-3.64 17.51,-3.78 18.01,-3.77 18.51,-3.76 18.98,-3.59 19.45,-3.41 19.84,-3.10 20.23,-2.79 20.50,-2.37 20.77,-1.95 20.89,-1.46 21.01,-0.98 20.97,-0.48 20.93,0.01 20.73,0.47 20.54,0.93 20.20,1.30 19.87,1.67 19.44,1.92 19.00,2.16 18.51,2.26 18.02,2.35 18.02,2.35 18.02,2.35 16.23,2.43 14.45,2.50 12.58,2.58 10.71,2.67 8.96,2.66 7.22,2.66 6.12,2.61 5.02,2.56 3.69,2.54 2.36,2.52 1.29,2.58 0.22,2.65 -0.09,2.64 -0.41,2.63 -0.72,2.54 -1.03,2.45 -1.31,2.29 -1.59,2.13 -1.82,1.91 -2.05,1.69 -2.23,1.42 -2.40,1.14 -2.50,0.84 -2.60,0.54 -2.63,0.22 -2.66,-0.09 -2.61,-0.41 -2.56,-0.73 -2.43,-1.02 -2.31,-1.32 -2.11,-1.58 -1.92,-1.83 -1.67,-2.04 -1.43,-2.24 -1.14,-2.38 -0.85,-2.52 -0.53,-2.58 -0.22,-2.65 -0.22,-2.65 L -0.22,-2.65 Z"/></g><g transform="translate(50.75614088341456 142.902810041867) rotate(0 4.450457686867281 4.222270808842872)" stroke="none"><path fill="#1e1e1e" d="M 0.55,2.50 Q 0.55,2.50 -0.07,2.69 -0.71,2.88 -0.16,3.80 0.38,4.72 1.37,5.35 2.36,5.99 3.68,6.46 5.01,6.94 6.22,7.04 7.43,7.14 7.88,5.92 8.33,4.70 7.85,3.70 7.38,2.70 6.31,2.24 5.25,1.78 3.92,1.67 2.59,1.55 0.88,1.68 -0.83,1.80 -1.40,1.81 -1.98,1.81 -2.53,1.62 -3.07,1.44 -3.53,1.09 -3.99,0.75 -4.31,0.27 -4.64,-0.19 -4.79,-0.75 -4.95,-1.30 -4.92,-1.88 -4.89,-2.45 -4.68,-2.99 -4.47,-3.52 -4.09,-3.96 -3.72,-4.40 -3.23,-4.70 -2.74,-5.00 -2.17,-5.12 -1.61,-5.25 -1.04,-5.19 -0.47,-5.13 0.05,-4.89 0.57,-4.65 0.99,-4.25 1.41,-3.86 1.68,-3.35 1.95,-2.84 2.04,-2.27 2.14,-1.70 2.04,-1.14 1.95,-0.57 1.68,-0.06 1.42,0.44 1.00,0.84 0.58,1.23 0.06,1.48 -0.45,1.72 -1.03,1.78 -1.60,1.85 -2.16,1.72 -2.72,1.60 -3.22,1.31 -3.71,1.01 -4.08,0.57 -4.46,0.13 -4.67,-0.39 -4.89,-0.92 -4.92,-1.50 -4.95,-2.07 -4.80,-2.63 -4.65,-3.18 -4.32,-3.66 -4.00,-4.14 -3.54,-4.49 -3.09,-4.84 -2.54,-5.02 -1.99,-5.21 -2.00,-5.21 -2.00,-5.21 0.41,-5.37 2.82,-5.53 4.22,-5.43 5.63,-5.32 6.68,-5.05 7.73,-4.78 8.79,-4.31 9.85,-3.84 11.10,-2.98 12.34,-2.12 13.38,-0.72 14.41,0.66 14.80,2.75 15.19,4.83 14.91,6.20 14.64,7.57 13.95,9.25 13.26,10.94 12.23,11.86 11.20,12.79 9.73,13.21 8.26,13.63 6.71,13.54 5.17,13.45 3.26,12.97 1.36,12.49 0.26,12.02 -0.84,11.56 -2.39,10.40 -3.95,9.24 -4.89,7.64 -5.82,6.04 -5.91,4.86 -5.99,3.67 -5.77,2.44 -5.55,1.21 -5.01,0.24 -4.47,-0.72 -3.20,-1.50 -1.93,-2.28 -1.24,-2.39 -0.55,-2.50 -0.25,-2.53 0.05,-2.56 0.36,-2.52 0.66,-2.48 0.95,-2.36 1.24,-2.24 1.49,-2.06 1.74,-1.88 1.94,-1.64 2.14,-1.41 2.28,-1.13 2.42,-0.85 2.48,-0.55 2.55,-0.25 2.55,0.05 2.54,0.36 2.46,0.66 2.38,0.96 2.23,1.23 2.08,1.50 1.87,1.73 1.66,1.96 1.40,2.13 1.14,2.30 0.85,2.40 0.55,2.50 0.55,2.50 L 0.55,2.50 Z"/></g><g transform="translate(70.12936711221309 139.31429452984463) rotate(0 7.943810333676957 6.14422190293967)" stroke="none"><path fill="#1e1e1e" d="M 2.47,-0.11 Q 2.47,-0.11 2.50,1.59 2.53,3.30 2.65,4.96 2.76,6.62 2.90,7.98 3.04,9.35 3.17,10.44 3.30,11.54 3.40,12.72 3.49,13.90 3.64,15.21 3.79,16.51 3.81,16.70 3.84,16.88 3.80,17.21 3.76,17.54 3.65,17.86 3.53,18.17 3.35,18.45 3.16,18.73 2.91,18.95 2.67,19.17 2.37,19.33 2.08,19.49 1.75,19.57 1.43,19.66 1.10,19.66 0.76,19.67 0.44,19.59 0.11,19.51 -0.17,19.36 -0.47,19.21 -0.72,18.99 -0.98,18.77 -1.17,18.50 -1.36,18.23 -1.48,17.92 -1.61,17.61 -1.65,17.28 -1.70,16.94 -1.86,14.95 -2.02,12.96 -2.03,11.57 -2.05,10.18 -1.98,8.59 -1.92,6.99 -1.71,5.34 -1.51,3.68 -0.60,1.53 0.31,-0.60 1.21,-1.99 2.11,-3.37 3.07,-4.29 4.02,-5.21 5.10,-5.81 6.18,-6.41 7.94,-6.72 9.70,-7.04 11.27,-7.16 12.84,-7.28 15.33,-5.67 17.81,-4.05 18.08,-3.68 18.34,-3.30 18.47,-2.86 18.61,-2.43 18.59,-1.97 18.58,-1.51 18.42,-1.08 18.26,-0.65 17.97,-0.30 17.68,0.05 17.29,0.29 16.90,0.54 16.46,0.65 16.01,0.75 15.56,0.72 15.10,0.68 14.68,0.49 14.26,0.31 13.92,0.00 13.58,-0.30 13.36,-0.70 13.13,-1.10 13.05,-1.55 12.97,-2.00 13.03,-2.45 13.10,-2.91 13.30,-3.31 13.51,-3.72 13.83,-4.05 14.16,-4.37 14.57,-4.57 14.98,-4.77 15.44,-4.83 15.89,-4.89 16.34,-4.80 16.79,-4.71 17.19,-4.48 17.59,-4.26 17.89,-3.91 18.19,-3.57 18.37,-3.15 18.55,-2.73 18.59,-2.27 18.62,-1.81 18.51,-1.37 18.39,-0.92 18.14,-0.54 17.90,-0.16 17.54,0.12 17.18,0.40 16.75,0.56 16.32,0.72 15.86,0.73 15.40,0.73 14.96,0.60 14.53,0.46 14.16,0.19 13.78,-0.07 13.78,-0.07 13.79,-0.07 12.15,-1.01 10.51,-1.95 9.42,-1.81 8.33,-1.67 7.20,-1.12 6.07,-0.57 5.42,0.27 4.76,1.12 4.26,2.69 3.76,4.26 3.65,5.65 3.55,7.04 3.59,8.54 3.62,10.03 3.68,11.33 3.74,12.63 3.79,14.76 3.84,16.88 3.80,17.21 3.76,17.54 3.65,17.86 3.53,18.17 3.35,18.45 3.16,18.72 2.91,18.95 2.67,19.17 2.37,19.33 2.08,19.49 1.75,19.57 1.43,19.66 1.10,19.66 0.76,19.67 0.44,19.59 0.11,19.51 -0.17,19.36 -0.47,19.21 -0.72,18.99 -0.98,18.77 -1.17,18.50 -1.36,18.23 -1.48,17.92 -1.61,17.61 -1.65,17.28 -1.70,16.94 -1.68,16.77 -1.66,16.59 -1.59,15.37 -1.52,14.16 -1.54,13.04 -1.56,11.92 -1.60,10.83 -1.64,9.74 -1.73,8.39 -1.82,7.04 -2.02,5.28 -2.21,3.52 -2.34,1.82 -2.47,0.11 -2.45,-0.18 -2.42,-0.48 -2.33,-0.76 -2.24,-1.04 -2.08,-1.30 -1.92,-1.55 -1.71,-1.76 -1.50,-1.97 -1.24,-2.12 -0.98,-2.27 -0.69,-2.35 -0.41,-2.44 -0.11,-2.45 0.18,-2.46 0.47,-2.41 0.76,-2.35 1.04,-2.22 1.31,-2.10 1.54,-1.91 1.77,-1.72 1.95,-1.48 2.13,-1.25 2.25,-0.97 2.37,-0.70 2.42,-0.40 2.47,-0.11 2.47,-0.11 L 2.47,-0.11 Z"/></g><g transform="translate(20.727020063398015 171.5228471805857) rotate(0 12.886277539420746 7.71791217251868)" stroke="none"><path fill="#1e1e1e" d="M 2.45,0 Q 2.45,0 2.43,1.57 2.41,3.14 2.42,4.68 2.43,6.21 2.51,7.64 2.58,9.07 2.69,10.49 2.80,11.90 2.90,13.08 3.00,14.25 3.07,15.35 3.13,16.45 3.22,17.24 3.31,18.02 3.27,18.34 3.24,18.67 3.13,18.97 3.02,19.28 2.85,19.55 2.67,19.82 2.43,20.04 2.19,20.26 1.91,20.42 1.62,20.58 1.31,20.66 1.00,20.74 0.67,20.75 0.35,20.76 0.03,20.69 -0.28,20.62 -0.57,20.47 -0.86,20.33 -1.10,20.12 -1.35,19.91 -1.54,19.64 -1.73,19.38 -1.85,19.08 -1.97,18.78 -2.02,18.46 -2.07,18.14 -1.50,17.08 -0.94,16.02 0.33,13.05 1.61,10.08 3.15,7.36 4.68,4.63 5.92,2.48 7.15,0.33 7.70,-0.84 8.25,-2.03 10.70,-2.68 13.14,-3.33 13.77,-2.17 14.39,-1.01 14.88,1.45 15.37,3.91 15.73,6.11 16.09,8.30 16.42,9.59 16.76,10.87 17.24,12.41 17.73,13.94 16.22,14.63 14.71,15.32 15.99,12.65 17.28,9.99 18.42,8.24 19.57,6.50 20.29,5.21 21.01,3.91 21.50,2.94 21.99,1.96 22.93,0.42 23.87,-1.12 24.14,-1.38 24.42,-1.63 24.76,-1.79 25.10,-1.95 25.48,-1.99 25.85,-2.03 26.22,-1.94 26.59,-1.86 26.91,-1.66 27.23,-1.47 27.47,-1.18 27.72,-0.89 27.85,-0.54 27.99,-0.19 28.01,0.18 28.03,0.55 27.93,0.91 27.82,1.28 27.61,1.59 27.40,1.90 27.10,2.13 26.80,2.35 26.44,2.47 26.08,2.59 25.70,2.59 25.33,2.58 24.97,2.46 24.62,2.34 24.32,2.11 24.02,1.88 23.81,1.57 23.60,1.26 23.50,0.89 23.40,0.53 23.42,0.15 23.44,-0.21 23.59,-0.56 23.73,-0.91 23.97,-1.20 24.22,-1.48 24.54,-1.68 24.87,-1.87 25.23,-1.95 25.60,-2.03 25.98,-1.98 26.35,-1.94 26.69,-1.78 27.03,-1.62 27.30,-1.36 27.58,-1.10 27.75,-0.77 27.93,-0.43 27.99,-0.06 28.04,0.30 27.98,0.67 27.92,1.04 27.74,1.38 27.56,1.71 27.56,1.71 27.56,1.71 26.78,2.98 26.00,4.26 25.41,5.18 24.81,6.11 24.05,7.38 23.28,8.65 22.37,10.46 21.46,12.28 20.64,14.06 19.83,15.84 18.84,17.18 17.85,18.52 15.72,17.86 13.59,17.20 13.40,16.08 13.22,14.96 13.01,13.32 12.80,11.69 12.60,10.38 12.40,9.08 11.86,7.01 11.31,4.93 10.66,2.85 10.01,0.76 9.72,-0.30 9.44,-1.36 10.66,-0.73 11.89,-0.11 11.23,0.99 10.57,2.10 9.54,4.33 8.51,6.55 7.26,9.37 6.01,12.18 4.85,15.05 3.70,17.93 3.03,18.97 2.37,20.01 2.84,19.02 3.31,18.02 3.27,18.34 3.24,18.67 3.13,18.97 3.02,19.28 2.85,19.55 2.67,19.82 2.43,20.04 2.19,20.26 1.91,20.42 1.62,20.58 1.31,20.66 1.00,20.74 0.67,20.75 0.35,20.76 0.03,20.69 -0.28,20.62 -0.57,20.47 -0.86,20.33 -1.10,20.12 -1.35,19.91 -1.54,19.64 -1.73,19.38 -1.85,19.08 -1.97,18.78 -2.02,18.46 -2.07,18.14 -2.05,17.90 -2.03,17.66 -1.99,16.09 -1.94,14.53 -1.97,13.38 -1.99,12.24 -2.09,10.78 -2.18,9.32 -2.26,7.80 -2.34,6.28 -2.38,4.71 -2.41,3.14 -2.43,1.57 -2.45,0 -2.42,-0.29 -2.38,-0.58 -2.27,-0.86 -2.17,-1.14 -2.00,-1.38 -1.83,-1.62 -1.61,-1.82 -1.39,-2.02 -1.13,-2.15 -0.87,-2.29 -0.58,-2.36 -0.29,-2.43 0.00,-2.43 0.29,-2.43 0.58,-2.36 0.87,-2.29 1.13,-2.15 1.39,-2.02 1.61,-1.82 1.83,-1.62 2.00,-1.38 2.17,-1.14 2.27,-0.86 2.38,-0.58 2.42,-0.29 2.45,0.00 2.45,0.00 L 2.45,0 Z"/></g><g transform="translate(63.838285879687106 174.57410462575325) rotate(0 1.3153221313425973 10.666750307751798)" stroke="none"><path fill="#1e1e1e" d="M 0,2.55 Q 0,2.55 -0.84,2.59 -1.68,2.64 -2.78,2.71 -3.88,2.79 -4.68,3.75 -5.47,4.71 -6.16,6.03 -6.85,7.35 -7.34,8.65 -7.83,9.96 -8.12,11.18 -8.42,12.39 -8.56,13.56 -8.70,14.72 -8.72,16.40 -8.73,18.07 -8.28,19.25 -7.82,20.42 -6.92,18.47 -6.02,16.52 -5.23,15.14 -4.43,13.76 -3.91,12.46 -3.40,11.16 -3.06,9.95 -2.72,8.73 -2.50,7.69 -2.28,6.64 -2.16,5.51 -2.03,4.39 -2.02,3.22 -2.01,2.05 -2.10,0.91 -2.18,-0.22 -2.24,-1.15 -2.30,-2.07 -2.25,-2.45 -2.21,-2.82 -2.07,-3.17 -1.94,-3.52 -1.73,-3.82 -1.52,-4.13 -1.24,-4.38 -0.96,-4.63 -0.63,-4.80 -0.29,-4.98 0.06,-5.07 0.42,-5.15 0.80,-5.15 1.17,-5.15 1.53,-5.07 1.90,-4.98 2.23,-4.80 2.56,-4.63 2.84,-4.38 3.12,-4.13 3.33,-3.82 3.54,-3.52 3.68,-3.17 3.81,-2.82 3.85,-2.45 3.90,-2.07 4.69,-1.25 5.47,-0.42 6.27,0.81 7.07,2.05 8.02,3.47 8.96,4.90 9.93,6.22 10.91,7.55 11.77,8.59 12.63,9.62 13.37,10.47 14.10,11.31 15.07,12.40 16.03,13.49 16.29,13.85 16.54,14.20 16.66,14.62 16.79,15.03 16.78,15.47 16.76,15.90 16.61,16.31 16.46,16.72 16.19,17.05 15.91,17.39 15.55,17.62 15.18,17.86 14.76,17.96 14.34,18.06 13.90,18.03 13.47,17.99 13.07,17.82 12.67,17.64 12.35,17.35 12.03,17.06 11.82,16.68 11.60,16.30 11.52,15.88 11.44,15.45 11.50,15.02 11.56,14.59 11.76,14.20 11.95,13.81 12.26,13.50 12.57,13.20 12.96,13.01 13.35,12.81 13.78,12.76 14.21,12.70 14.64,12.78 15.06,12.87 15.44,13.08 15.82,13.30 16.11,13.62 16.40,13.95 16.57,14.35 16.74,14.75 16.77,15.18 16.80,15.61 16.70,16.03 16.59,16.46 16.36,16.82 16.12,17.19 15.78,17.46 15.44,17.73 15.03,17.88 14.62,18.03 14.19,18.04 13.76,18.05 13.34,17.92 12.93,17.79 12.57,17.53 12.22,17.28 12.22,17.28 12.22,17.28 11.12,16.00 10.01,14.72 9.32,13.85 8.63,12.98 7.72,11.91 6.81,10.83 5.68,9.54 4.55,8.24 3.38,6.87 2.22,5.51 1.25,4.26 0.28,3.02 -0.59,1.51 -1.47,0.01 -1.89,-1.03 -2.30,-2.07 -2.25,-2.45 -2.21,-2.82 -2.07,-3.17 -1.94,-3.52 -1.73,-3.82 -1.52,-4.13 -1.24,-4.38 -0.96,-4.63 -0.63,-4.80 -0.30,-4.98 0.06,-5.07 0.42,-5.15 0.80,-5.15 1.17,-5.15 1.53,-5.07 1.90,-4.98 2.23,-4.80 2.56,-4.63 2.84,-4.38 3.12,-4.13 3.33,-3.82 3.54,-3.52 3.68,-3.17 3.81,-2.82 3.85,-2.45 3.90,-2.07 3.88,-2.02 3.86,-1.96 3.78,-0.84 3.70,0.26 3.59,1.32 3.48,2.38 3.30,3.71 3.12,5.03 2.93,6.43 2.74,7.83 2.43,8.99 2.12,10.14 1.70,11.55 1.28,12.96 0.69,14.54 0.11,16.12 -0.69,17.83 -1.50,19.54 -2.55,21.39 -3.60,23.24 -4.99,24.55 -6.38,25.87 -8.14,25.86 -9.89,25.85 -10.80,25.26 -11.70,24.67 -12.39,23.75 -13.07,22.84 -13.55,21.61 -14.03,20.39 -14.14,18.33 -14.25,16.26 -14.15,15.16 -14.05,14.07 -13.87,12.62 -13.69,11.17 -13.36,9.68 -13.02,8.20 -12.52,6.59 -12.02,4.98 -11.34,3.30 -10.65,1.61 -9.84,0.39 -9.02,-0.83 -7.91,-1.54 -6.79,-2.24 -5.34,-2.52 -3.88,-2.79 -2.78,-2.71 -1.68,-2.64 -0.84,-2.59 0,-2.55 0.30,-2.51 0.61,-2.47 0.89,-2.37 1.18,-2.26 1.44,-2.08 1.69,-1.91 1.89,-1.68 2.10,-1.45 2.24,-1.17 2.38,-0.90 2.46,-0.60 2.53,-0.30 2.53,0.00 2.53,0.30 2.46,0.60 2.38,0.90 2.24,1.17 2.10,1.45 1.89,1.68 1.69,1.91 1.44,2.08 1.18,2.26 0.89,2.37 0.61,2.47 0.30,2.51 -0.00,2.55 -0.00,2.55 L 0,2.55 Z"/></g><g transform="translate(77.48462761728351 171.0187746362408) rotate(0 12.095492401493772 -0.06458838965617986)" stroke="none"><path fill="#1e1e1e" d="M -0.04,-2.51 Q -0.04,-2.51 2.08,-2.39 4.22,-2.27 5.66,-2.31 7.11,-2.35 8.49,-2.39 9.87,-2.42 11.27,-2.54 12.66,-2.65 13.81,-2.74 14.96,-2.83 16.82,-2.88 18.69,-2.94 21.45,-2.98 24.22,-3.02 24.68,-2.94 25.14,-2.87 25.56,-2.65 25.97,-2.43 26.29,-2.09 26.61,-1.75 26.81,-1.32 27.01,-0.90 27.06,-0.43 27.11,0.02 27.01,0.48 26.91,0.94 26.67,1.34 26.42,1.74 26.07,2.04 25.71,2.35 25.28,2.52 24.84,2.69 24.37,2.72 23.91,2.74 23.45,2.62 23.00,2.49 22.62,2.23 22.23,1.97 21.94,1.59 21.66,1.22 21.51,0.78 21.36,0.33 21.36,-0.12 21.36,-0.59 21.51,-1.04 21.66,-1.48 21.94,-1.85 22.23,-2.23 22.62,-2.49 23.00,-2.75 23.45,-2.88 23.91,-3.00 24.37,-2.98 24.84,-2.95 25.28,-2.78 25.71,-2.60 26.07,-2.30 26.42,-2.00 26.67,-1.60 26.91,-1.19 27.01,-0.74 27.11,-0.28 27.06,0.18 27.01,0.64 26.81,1.07 26.61,1.49 26.29,1.83 25.97,2.17 25.56,2.39 25.14,2.61 24.68,2.68 24.22,2.76 24.22,2.76 24.22,2.76 21.45,2.72 18.69,2.68 16.82,2.62 14.96,2.57 13.82,2.48 12.67,2.40 11.28,2.29 9.89,2.18 8.52,2.16 7.16,2.14 5.73,2.13 4.29,2.12 2.17,2.31 0.04,2.51 -0.25,2.47 -0.55,2.44 -0.84,2.34 -1.12,2.24 -1.37,2.07 -1.63,1.90 -1.83,1.68 -2.04,1.46 -2.18,1.19 -2.33,0.93 -2.40,0.63 -2.48,0.34 -2.49,0.04 -2.49,-0.25 -2.42,-0.55 -2.36,-0.84 -2.22,-1.11 -2.09,-1.39 -1.89,-1.62 -1.69,-1.85 -1.45,-2.02 -1.20,-2.20 -0.92,-2.31 -0.64,-2.42 -0.34,-2.46 -0.04,-2.51 -0.04,-2.51 L -0.04,-2.51 Z"/></g><g transform="translate(91.13569316446777 162.30452689900207) rotate(0 0 15.868999301988822)" stroke="none"><path fill="#1e1e1e" d="M 2.10,0 Q 2.10,0 1.99,2.16 1.89,4.33 1.81,7.00 1.73,9.67 1.68,12.05 1.62,14.42 1.58,16.64 1.53,18.85 1.55,20.79 1.56,22.73 1.65,24.17 1.74,25.60 1.83,26.68 1.93,27.75 1.93,29.68 1.93,31.62 1.88,31.93 1.83,32.24 1.68,32.51 1.53,32.79 1.31,33.01 1.08,33.22 0.80,33.35 0.51,33.48 0.20,33.52 -0.10,33.55 -0.40,33.48 -0.71,33.42 -0.98,33.26 -1.25,33.09 -1.45,32.86 -1.65,32.62 -1.77,32.33 -1.88,32.04 -1.90,31.72 -1.92,31.41 -1.83,31.11 -1.75,30.81 -1.57,30.55 -1.40,30.29 -1.15,30.10 -0.90,29.91 -0.60,29.81 -0.31,29.72 0.00,29.72 0.31,29.72 0.60,29.82 0.90,29.91 1.15,30.10 1.40,30.29 1.57,30.55 1.75,30.81 1.83,31.11 1.92,31.41 1.90,31.73 1.88,32.04 1.77,32.33 1.65,32.62 1.45,32.86 1.25,33.09 0.98,33.26 0.71,33.42 0.40,33.48 0.10,33.55 -0.20,33.52 -0.51,33.48 -0.80,33.35 -1.08,33.22 -1.31,33.01 -1.53,32.79 -1.68,32.51 -1.83,32.24 -1.88,31.93 -1.93,31.62 -1.93,31.62 -1.93,31.62 -1.93,29.68 -1.93,27.75 -1.83,26.68 -1.74,25.60 -1.65,24.17 -1.56,22.73 -1.55,20.79 -1.53,18.85 -1.58,16.64 -1.62,14.42 -1.68,12.05 -1.73,9.67 -1.81,7.00 -1.89,4.33 -1.99,2.16 -2.10,0 -2.07,-0.25 -2.04,-0.50 -1.95,-0.74 -1.86,-0.97 -1.71,-1.18 -1.57,-1.39 -1.38,-1.56 -1.19,-1.73 -0.97,-1.84 -0.74,-1.96 -0.49,-2.02 -0.25,-2.08 0.00,-2.08 0.25,-2.08 0.50,-2.02 0.74,-1.96 0.97,-1.84 1.19,-1.73 1.38,-1.56 1.57,-1.39 1.71,-1.18 1.86,-0.97 1.95,-0.74 2.04,-0.50 2.07,-0.25 2.10,0.00 2.10,0.00 L 2.10,0 Z"/></g><g transform="translate(96.22213602536635 185.22273621179812) rotate(0 7.8801556189461905 3.4568822386664237)" stroke="none"><path fill="#1e1e1e" d="M 0,-2.49 Q 0,-2.49 2.57,-2.34 5.15,-2.18 6.62,-2.21 8.08,-2.23 9.73,-2.45 11.38,-2.68 9.86,-2.71 8.35,-2.75 7.16,-2.90 5.98,-3.05 4.34,-3.10 2.71,-3.15 1.73,-2.60 0.75,-2.05 0.29,-0.97 -0.17,0.10 -0.47,1.55 -0.78,3.00 -0.84,4.30 -0.89,5.60 -0.08,6.63 0.73,7.65 1.70,8.11 2.67,8.57 4.05,8.96 5.44,9.35 7.16,9.54 8.89,9.73 11.03,9.81 13.18,9.89 14.54,9.84 15.90,9.78 17.58,9.56 19.26,9.33 19.79,9.35 20.32,9.36 20.81,9.54 21.31,9.72 21.72,10.05 22.14,10.38 22.42,10.82 22.71,11.27 22.83,11.78 22.96,12.29 22.92,12.82 22.88,13.34 22.67,13.83 22.46,14.32 22.11,14.71 21.76,15.10 21.30,15.36 20.84,15.62 20.33,15.73 19.81,15.83 19.28,15.76 18.76,15.69 18.29,15.45 17.81,15.22 17.44,14.85 17.07,14.47 16.83,14.00 16.60,13.53 16.52,13.01 16.45,12.48 16.55,11.96 16.65,11.45 16.91,10.99 17.16,10.53 17.56,10.17 17.95,9.82 18.43,9.61 18.92,9.40 19.44,9.36 19.97,9.31 20.48,9.44 20.99,9.57 21.44,9.85 21.89,10.13 22.22,10.54 22.55,10.95 22.73,11.45 22.91,11.94 22.93,12.47 22.95,13.00 22.79,13.50 22.64,14.01 22.33,14.44 22.02,14.87 21.60,15.18 21.17,15.48 20.66,15.64 20.16,15.80 20.16,15.80 20.16,15.80 18.17,16.02 16.19,16.25 14.66,16.28 13.13,16.31 11.91,16.33 10.70,16.35 9.60,16.34 8.51,16.33 7.29,16.28 6.07,16.23 4.96,16.08 3.85,15.93 1.96,15.40 0.07,14.88 -1.73,13.94 -3.54,12.99 -4.89,11.66 -6.24,10.33 -6.91,8.56 -7.57,6.79 -7.56,5.36 -7.54,3.94 -7.33,2.19 -7.12,0.43 -6.73,-0.90 -6.33,-2.24 -5.69,-3.59 -5.05,-4.95 -4.13,-6.10 -3.20,-7.25 -1.63,-8.15 -0.05,-9.06 1.42,-9.13 2.91,-9.19 4.75,-9.07 6.60,-8.94 8.10,-8.81 9.60,-8.68 10.71,-8.43 11.83,-8.19 13.70,-7.27 15.56,-6.35 16.15,-5.44 16.74,-4.53 16.72,-3.09 16.71,-1.65 15.92,-0.38 15.12,0.88 13.56,1.54 12.00,2.20 10.04,2.22 8.08,2.23 6.62,2.21 5.15,2.18 2.57,2.34 0,2.49 -0.29,2.45 -0.59,2.42 -0.87,2.31 -1.15,2.20 -1.40,2.03 -1.65,1.86 -1.85,1.64 -2.05,1.41 -2.19,1.14 -2.33,0.88 -2.40,0.59 -2.47,0.30 -2.47,-0.00 -2.47,-0.30 -2.40,-0.59 -2.33,-0.88 -2.19,-1.15 -2.05,-1.41 -1.85,-1.64 -1.65,-1.86 -1.40,-2.03 -1.15,-2.20 -0.87,-2.31 -0.59,-2.42 -0.29,-2.45 0.00,-2.49 0.00,-2.49 L 0,-2.49 Z"/></g><g transform="translate(122.78702927542395 180.55056498078443) rotate(0 8.982048915039229 5.382611162371475)" stroke="none"><path fill="#1e1e1e" d="M 2.33,0 Q 2.33,0 2.19,2.77 2.06,5.55 2.01,7.50 1.95,9.45 1.98,11.01 2.02,12.57 2.08,13.74 2.15,14.90 2.28,16.19 2.40,17.47 2.46,18.01 2.53,18.55 2.49,18.86 2.46,19.16 2.35,19.45 2.24,19.73 2.06,19.98 1.89,20.23 1.66,20.44 1.43,20.64 1.16,20.78 0.89,20.92 0.60,21.00 0.30,21.07 -0.00,21.07 -0.30,21.07 -0.60,21.00 -0.89,20.92 -1.16,20.78 -1.43,20.64 -1.66,20.44 -1.89,20.23 -2.07,19.98 -2.24,19.73 -2.35,19.45 -2.46,19.16 -2.49,18.86 -2.53,18.55 -2.80,17.21 -3.06,15.87 -3.07,13.49 -3.08,11.12 -3.13,9.42 -3.19,7.71 -3.17,6.05 -3.16,4.39 -2.78,2.59 -2.40,0.79 -1.27,-0.86 -0.14,-2.53 1.28,-3.71 2.71,-4.89 3.93,-5.66 5.14,-6.44 6.37,-7.07 7.60,-7.69 9.17,-8.26 10.73,-8.82 12.10,-9.24 13.47,-9.65 16.56,-9.94 19.66,-10.22 20.03,-10.03 20.39,-9.85 20.68,-9.56 20.97,-9.27 21.15,-8.90 21.33,-8.53 21.39,-8.12 21.44,-7.71 21.36,-7.31 21.28,-6.91 21.08,-6.55 20.87,-6.20 20.57,-5.92 20.26,-5.65 19.88,-5.49 19.50,-5.33 19.09,-5.30 18.68,-5.27 18.29,-5.37 17.89,-5.47 17.54,-5.69 17.20,-5.92 16.94,-6.24 16.69,-6.56 16.55,-6.95 16.41,-7.33 16.40,-7.74 16.39,-8.15 16.51,-8.54 16.64,-8.94 16.88,-9.27 17.12,-9.60 17.45,-9.84 17.79,-10.08 18.18,-10.19 18.57,-10.31 18.98,-10.30 19.39,-10.29 19.78,-10.14 20.16,-10.00 20.48,-9.74 20.80,-9.48 21.02,-9.13 21.24,-8.79 21.34,-8.39 21.43,-7.99 21.40,-7.58 21.36,-7.17 21.20,-6.79 21.03,-6.42 20.76,-6.11 20.48,-5.81 20.12,-5.61 19.76,-5.41 19.36,-5.33 18.96,-5.26 18.55,-5.32 18.14,-5.37 18.14,-5.37 18.15,-5.37 16.47,-5.19 14.80,-5.00 13.58,-4.67 12.36,-4.35 11.01,-3.85 9.67,-3.35 8.60,-2.88 7.53,-2.41 6.53,-1.87 5.53,-1.33 4.50,-0.56 3.47,0.21 2.72,1.07 1.96,1.93 1.67,3.17 1.38,4.41 1.38,5.96 1.39,7.51 1.49,9.13 1.59,10.76 1.93,12.92 2.27,15.09 2.40,16.82 2.53,18.55 2.49,18.86 2.46,19.16 2.35,19.45 2.24,19.73 2.07,19.98 1.89,20.23 1.66,20.44 1.43,20.64 1.16,20.78 0.89,20.92 0.60,21.00 0.30,21.07 0.00,21.07 -0.30,21.07 -0.60,21.00 -0.89,20.92 -1.16,20.78 -1.43,20.64 -1.66,20.44 -1.89,20.23 -2.06,19.98 -2.24,19.73 -2.35,19.45 -2.46,19.16 -2.49,18.86 -2.53,18.55 -2.46,18.01 -2.40,17.47 -2.28,16.19 -2.15,14.90 -2.08,13.74 -2.02,12.57 -1.98,11.01 -1.95,9.45 -2.01,7.50 -2.06,5.55 -2.19,2.77 -2.33,0 -2.29,-0.27 -2.26,-0.55 -2.16,-0.82 -2.06,-1.08 -1.90,-1.31 -1.74,-1.54 -1.53,-1.73 -1.32,-1.92 -1.07,-2.05 -0.82,-2.18 -0.55,-2.24 -0.28,-2.31 0.00,-2.31 0.28,-2.31 0.55,-2.24 0.82,-2.18 1.07,-2.05 1.32,-1.92 1.53,-1.73 1.74,-1.54 1.90,-1.31 2.06,-1.08 2.16,-0.82 2.26,-0.55 2.29,-0.27 2.33,0.00 2.33,0.00 L 2.33,0 Z"/></g></svg>