<svg version="1.1" xmlns="http://www.w3.org/2000/svg" viewBox="0 0 352.80327017666866 314.7058445207041" width="352.80327017666866" height="314.7058445207041" class="excalidraw-svg">
  <!-- svg-source:excalidraw -->
  
  <defs>
    <style class="style-fonts">
      @font-face {
        font-family: "Virgil";
        src: url("https://excalidraw.com/Virgil.woff2");
      }
      @font-face {
        font-family: "Cascadia";
        src: url("https://excalidraw.com/Cascadia.woff2");
      }
      @font-face {
        font-family: "Assistant";
        src: url("https://excalidraw.com/Assistant-Regular.woff2");
      }
    </style>
    
  </defs>
  <rect x="0" y="0" width="352.80327017666866" height="314.7058445207041" fill="#ffffff"/><g transform="translate(115.7593688632835 77.76986093064886) rotate(0 60.64226622505083 112.90592031935114)" stroke="none"><path d="M2.39 1.24 C-1.57 1.73, -19.32 1.75, -25.32 1.54 C-31.32 1.34, -29.54 -1.22, -33.6 0.01 C-37.67 1.25, -44.4 5.49, -49.7 8.95 C-55.01 12.41, -60.09 17.15, -65.43 20.79 C-70.78 24.42, -77.56 27.29, -81.78 30.74 C-85.99 34.19, -88.71 37.71, -90.72 41.49 C-92.72 45.28, -91.65 47.44, -93.81 53.48 C-95.97 59.51, -102 71.09, -103.67 77.69 C-105.35 84.28, -103.73 86.74, -103.88 93.04 C-104.03 99.35, -104.24 110.67, -104.56 115.53 C-104.89 120.38, -106.64 118.49, -105.81 122.19 C-104.98 125.9, -103.06 131.46, -99.59 137.75 C-96.12 144.05, -89.27 153.35, -85.01 159.96 C-80.75 166.56, -79.31 171.97, -74.02 177.38 C-68.73 182.8, -62.33 187.1, -53.29 192.45 C-44.24 197.79, -28.3 204.74, -19.76 209.48 C-11.22 214.21, -6.32 218.9, -2.02 220.87 C2.27 222.84, -1.37 220.7, 6.02 221.29 C13.4 221.88, 28.39 223.82, 42.29 224.4 C56.2 224.98, 78.85 225.15, 89.46 224.76 C100.08 224.36, 99.87 223.02, 106 222.04 C112.14 221.05, 117.84 222.42, 126.26 218.83 C134.68 215.23, 147.66 205.46, 156.52 200.47 C165.38 195.47, 172.87 194.35, 179.44 188.84 C186 183.32, 191.74 172.04, 195.9 167.38 C200.06 162.73, 201.01 164.58, 204.39 160.91 C207.77 157.23, 212.86 151.43, 216.19 145.32 C219.52 139.2, 222.46 131.97, 224.37 124.21 C226.28 116.46, 226.99 105.81, 227.66 98.78 C228.32 91.75, 228.84 87.63, 228.35 82.03 C227.86 76.43, 226.42 69.49, 224.72 65.21 C223.03 60.93, 220.85 59.15, 218.18 56.35 C215.51 53.55, 212.89 52.58, 208.7 48.42 C204.52 44.26, 197.44 34.55, 193.09 31.39 C188.74 28.23, 187.08 31.28, 182.6 29.45 C178.11 27.61, 174.63 22.85, 166.19 20.36 C157.75 17.87, 145.99 17.22, 131.96 14.51 C117.94 11.8, 97.68 6.4, 82.04 4.11 C66.41 1.82, 53.18 1.26, 38.16 0.76 C23.13 0.26, -0.89 1.31, -8.09 1.11" stroke="none" stroke-width="0" fill="#e9ecef" fill-rule="evenodd"/><path fill="#1e1e1e" d="M -0.26,4.72 Q -0.26,4.72 -1.83,4.75 -3.40,4.77 -6.28,4.91 -9.15,5.05 -12.27,4.96 -15.38,4.87 -18.20,4.88 -21.02,4.89 -23.73,5.20 -26.45,5.50 -28.99,6.08 -31.54,6.67 -34.14,7.44 -36.74,8.22 -39.82,9.26 -42.91,10.31 -46.26,11.67 -49.61,13.04 -52.71,14.62 -55.81,16.20 -58.46,17.89 -61.10,19.59 -63.78,21.50 -66.46,23.42 -68.98,25.30 -71.50,27.18 -73.37,28.77 -75.24,30.35 -76.91,32.27 -78.58,34.18 -80.34,36.49 -82.11,38.81 -85.11,43.63 -88.12,48.46 -90.36,52.80 -92.61,57.15 -94.35,61.24 -96.10,65.33 -97.50,69.18 -98.90,73.03 -99.79,76.61 -100.68,80.19 -101.14,83.65 -101.60,87.11 -101.78,90.58 -101.96,94.06 -102.02,97.57 -102.08,101.09 -101.94,104.55 -101.81,108.02 -101.34,111.49 -100.88,114.96 -100.01,118.56 -99.14,122.16 -97.94,126.04 -96.75,129.91 -95.20,133.85 -93.65,137.80 -91.71,141.76 -89.76,145.73 -87.56,149.50 -85.35,153.27 -82.90,156.80 -80.46,160.33 -77.39,164.11 -74.32,167.89 -70.74,171.76 -67.16,175.62 -63.37,179.19 -59.57,182.76 -55.22,186.22 -50.87,189.68 -46.45,192.79 -42.04,195.91 -38.00,198.54 -33.95,201.17 -30.04,203.49 -26.13,205.81 -22.28,207.84 -18.43,209.88 -14.11,211.76 -9.80,213.65 -4.86,215.30 0.07,216.96 4.78,218.19 9.48,219.43 13.50,220.20 17.52,220.97 21.73,221.56 25.93,222.15 30.34,222.67 34.75,223.18 39.13,223.49 43.50,223.80 48.18,223.94 52.85,224.09 57.86,224.15 62.86,224.21 67.77,224.16 72.67,224.12 77.05,223.91 81.44,223.70 85.55,223.25 89.67,222.80 93.98,222.05 98.30,221.30 103.23,220.15 108.16,219.01 113.06,217.62 117.95,216.23 122.79,214.55 127.64,212.87 135.82,209.07 144.01,205.26 150.54,201.59 157.06,197.93 162.70,194.11 168.34,190.29 173.47,186.28 178.60,182.26 183.34,178.11 188.09,173.96 192.25,169.78 196.42,165.60 200.03,161.38 203.64,157.15 206.63,153.01 209.63,148.86 212.12,144.11 214.61,139.35 216.62,134.10 218.64,128.85 220.01,123.58 221.38,118.31 222.22,112.92 223.05,107.54 223.44,102.38 223.83,97.23 223.90,92.46 223.97,87.69 223.57,83.74 223.16,79.79 222.16,76.44 221.17,73.08 219.13,68.88 217.10,64.68 214.27,60.22 211.45,55.76 208.62,52.15 205.79,48.54 202.02,44.86 198.25,41.17 193.72,37.85 189.18,34.52 184.55,32.06 179.93,29.59 176.13,27.98 172.33,26.36 167.77,24.93 163.21,23.51 157.16,21.90 151.10,20.29 144.91,18.88 138.73,17.47 132.09,16.19 125.45,14.92 119.44,13.88 113.43,12.83 107.91,11.83 102.39,10.83 96.90,9.83 91.41,8.84 86.21,8.02 81.01,7.20 75.93,6.44 70.85,5.68 66.18,5.00 61.50,4.32 57.41,3.87 53.32,3.41 49.74,3.13 46.17,2.84 43.27,2.73 40.37,2.62 38.21,2.70 36.05,2.78 33.15,3.03 30.26,3.27 27.36,3.51 24.47,3.75 22.00,3.94 19.52,4.14 16.15,4.36 12.78,4.58 10.33,4.78 7.88,4.98 5.56,5.12 3.24,5.25 0.65,5.43 -1.92,5.61 -3.64,5.69 -5.36,5.77 -6.38,5.63 -7.41,5.48 -8.33,5.01 -9.25,4.55 -9.98,3.81 -10.71,3.07 -11.16,2.14 -11.61,1.21 -11.75,0.19 -11.88,-0.83 -11.68,-1.84 -11.47,-2.85 -10.96,-3.75 -10.44,-4.65 -9.67,-5.33 -8.89,-6.02 -7.94,-6.42 -6.99,-6.82 -5.96,-6.90 -4.92,-6.98 -3.92,-6.72 -2.92,-6.46 -2.05,-5.90 -1.19,-5.34 -0.54,-4.52 0.09,-3.71 0.44,-2.74 0.79,-1.77 0.81,-0.73 0.83,0.29 0.52,1.28 0.21,2.26 -0.39,3.10 -1.00,3.93 -1.85,4.53 -2.69,5.13 -3.68,5.43 -4.67,5.72 -5.71,5.69 -6.74,5.65 -7.71,5.29 -8.68,4.92 -9.48,4.27 -10.28,3.62 -10.83,2.74 -11.38,1.87 -11.62,0.86 -11.86,-0.14 -11.77,-1.17 -11.68,-2.20 -11.27,-3.14 -10.85,-4.09 -10.15,-4.85 -9.46,-5.62 -8.55,-6.12 -7.65,-6.62 -6.63,-6.81 -5.62,-7.00 -5.62,-7.00 -5.62,-7.00 -2.25,-7.04 1.11,-7.09 4.24,-6.98 7.37,-6.87 10.08,-6.85 12.78,-6.82 16.16,-6.60 19.53,-6.38 22.01,-6.18 24.50,-5.99 27.45,-5.72 30.41,-5.45 33.44,-5.05 36.48,-4.65 38.77,-4.31 41.06,-3.98 43.96,-3.48 46.85,-2.99 50.40,-2.44 53.95,-1.89 58.10,-1.38 62.26,-0.87 66.94,-0.19 71.62,0.48 76.72,1.24 81.83,2.01 87.09,2.83 92.35,3.66 97.84,4.65 103.33,5.65 108.83,6.65 114.33,7.64 120.39,8.69 126.44,9.74 133.17,11.03 139.90,12.32 146.18,13.75 152.45,15.18 158.63,16.81 164.80,18.45 169.60,19.96 174.41,21.47 178.42,23.18 182.44,24.89 187.39,27.54 192.35,30.19 197.19,33.75 202.02,37.30 206.05,41.22 210.08,45.15 213.10,48.96 216.13,52.77 219.15,57.49 222.18,62.20 224.48,66.90 226.78,71.60 227.65,75.44 228.52,79.28 228.87,83.53 229.22,87.77 229.15,92.70 229.07,97.63 228.66,102.99 228.24,108.35 227.35,113.99 226.46,119.64 225.00,125.19 223.54,130.74 221.40,136.27 219.26,141.79 216.57,146.86 213.89,151.94 210.76,156.25 207.63,160.57 203.88,164.94 200.14,169.31 195.84,173.61 191.55,177.92 186.69,182.16 181.84,186.40 176.56,190.53 171.29,194.65 165.46,198.58 159.63,202.52 152.93,206.27 146.23,210.03 137.79,213.94 129.36,217.85 124.38,219.57 119.39,221.29 114.37,222.72 109.35,224.15 104.28,225.32 99.20,226.50 94.72,227.28 90.23,228.06 85.96,228.51 81.69,228.95 77.20,229.17 72.72,229.38 67.76,229.43 62.80,229.48 57.75,229.42 52.70,229.36 47.91,229.22 43.13,229.07 38.64,228.76 34.14,228.44 29.67,227.93 25.19,227.41 20.84,226.81 16.49,226.20 12.32,225.36 8.14,224.52 3.27,223.23 -1.59,221.95 -6.75,220.22 -11.91,218.48 -16.40,216.51 -20.90,214.55 -24.87,212.46 -28.83,210.36 -32.84,207.99 -36.84,205.62 -40.98,202.94 -45.11,200.27 -49.65,197.07 -54.19,193.87 -58.73,190.29 -63.26,186.70 -67.20,183.02 -71.15,179.34 -74.87,175.37 -78.59,171.40 -81.82,167.48 -85.06,163.57 -87.68,159.91 -90.30,156.24 -92.69,152.34 -95.08,148.43 -97.25,144.31 -99.41,140.19 -101.21,136.10 -103.00,132.01 -104.47,127.94 -105.94,123.87 -106.98,119.89 -108.01,115.91 -108.51,112.06 -109.00,108.22 -109.07,104.55 -109.13,100.89 -108.99,97.24 -108.85,93.60 -108.55,89.86 -108.25,86.12 -107.63,82.35 -107.01,78.57 -106.01,74.76 -105.01,70.94 -103.72,66.90 -102.42,62.86 -100.84,58.44 -99.26,54.02 -97.22,49.24 -95.18,44.46 -92.27,38.86 -89.37,33.26 -87.34,30.62 -85.31,27.99 -83.05,25.63 -80.79,23.28 -78.69,21.76 -76.59,20.25 -74.02,18.39 -71.45,16.54 -68.59,14.44 -65.74,12.34 -62.83,10.48 -59.91,8.62 -56.63,6.75 -53.34,4.87 -49.81,3.09 -46.27,1.30 -42.95,-0.03 -39.62,-1.38 -36.70,-2.26 -33.78,-3.14 -30.73,-3.83 -27.67,-4.53 -24.40,-4.95 -21.13,-5.37 -18.25,-5.42 -15.36,-5.46 -12.20,-5.54 -9.04,-5.61 -5.94,-5.37 -2.84,-5.12 -1.29,-4.92 0.26,-4.72 0.82,-4.62 1.38,-4.52 1.91,-4.29 2.43,-4.06 2.88,-3.71 3.33,-3.36 3.68,-2.91 4.04,-2.46 4.27,-1.94 4.51,-1.42 4.61,-0.86 4.72,-0.30 4.69,0.26 4.66,0.83 4.49,1.37 4.32,1.92 4.03,2.41 3.73,2.90 3.33,3.30 2.93,3.71 2.44,4.01 1.96,4.30 1.41,4.48 0.87,4.65 0.30,4.69 -0.26,4.72 -0.26,4.72 L -0.26,4.72 Z"/></g><g transform="translate(208.36902750677245 96.21953386888032) rotate(0 -9.17586549886515 5.595483863292088)" stroke="none"><path fill="#1e1e1e" d="M 1.19,0 Q 1.19,0 1.12,1.06 1.05,2.12 1.05,2.95 1.05,3.78 1.05,4.61 1.05,5.43 1.06,6.23 1.06,7.03 1.09,7.62 1.12,8.22 1.18,9.04 1.24,9.86 1.30,10.44 1.36,11.02 1.00,11.60 0.63,12.18 -0.18,12.38 -1.01,12.57 -1.89,12.53 -2.76,12.49 -3.98,12.41 -5.19,12.33 -6.64,12.27 -8.08,12.20 -9.36,12.15 -10.64,12.11 -11.79,12.07 -12.93,12.04 -15.52,12.06 -18.11,12.09 -18.26,12.07 -18.40,12.04 -18.53,11.98 -18.66,11.91 -18.76,11.80 -18.86,11.69 -18.92,11.56 -18.99,11.43 -19.00,11.28 -19.02,11.14 -18.99,10.99 -18.95,10.85 -18.88,10.72 -18.80,10.60 -18.69,10.50 -18.58,10.41 -18.44,10.36 -18.31,10.30 -18.16,10.29 -18.01,10.29 -17.87,10.32 -17.73,10.36 -17.61,10.45 -17.49,10.53 -17.40,10.64 -17.31,10.76 -17.26,10.90 -17.22,11.04 -17.22,11.19 -17.22,11.33 -17.27,11.47 -17.31,11.61 -17.40,11.73 -17.49,11.84 -17.61,11.93 -17.73,12.01 -17.87,12.05 -18.01,12.09 -18.16,12.08 -18.31,12.07 -18.44,12.02 -18.58,11.96 -18.69,11.87 -18.80,11.77 -18.88,11.65 -18.95,11.52 -18.99,11.38 -19.02,11.23 -19.00,11.09 -18.99,10.94 -18.92,10.81 -18.86,10.68 -18.76,10.57 -18.66,10.46 -18.53,10.40 -18.40,10.33 -18.26,10.30 -18.11,10.28 -18.11,10.28 -18.11,10.28 -15.52,10.31 -12.93,10.34 -11.79,10.30 -10.64,10.26 -9.36,10.22 -8.08,10.17 -6.64,10.10 -5.19,10.04 -3.98,9.95 -2.78,9.87 -1.73,10.00 -0.69,10.12 -1.03,10.57 -1.36,11.02 -1.30,10.44 -1.24,9.86 -1.18,9.04 -1.12,8.22 -1.09,7.62 -1.06,7.03 -1.06,6.23 -1.05,5.43 -1.05,4.61 -1.05,3.78 -1.05,2.95 -1.05,2.12 -1.12,1.06 -1.19,0 -1.17,-0.14 -1.16,-0.28 -1.10,-0.42 -1.05,-0.55 -0.97,-0.67 -0.89,-0.79 -0.78,-0.88 -0.67,-0.98 -0.55,-1.05 -0.42,-1.11 -0.28,-1.15 -0.14,-1.18 0.00,-1.18 0.14,-1.18 0.28,-1.15 0.42,-1.11 0.55,-1.05 0.67,-0.98 0.78,-0.88 0.89,-0.79 0.97,-0.67 1.05,-0.55 1.10,-0.42 1.16,-0.28 1.17,-0.14 1.19,0.00 1.19,0.00 L 1.19,0 Z"/></g><g transform="translate(217.14013913882263 97.43812902250312) rotate(0 5.658753739689274 4.248615535603747)" stroke="none"><path fill="#1e1e1e" d="M 1.30,0.07 Q 1.30,0.07 1.27,0.69 1.24,1.31 1.23,1.92 1.22,2.53 1.23,3.08 1.23,3.63 1.24,4.17 1.25,4.72 1.27,5.67 1.29,6.62 1.33,7.28 1.37,7.95 0.91,7.44 0.46,6.93 1.38,6.94 2.30,6.96 3.12,6.98 3.94,7.00 4.83,6.97 5.72,6.95 6.62,6.88 7.52,6.82 9.29,6.61 11.06,6.41 11.26,6.42 11.46,6.43 11.65,6.51 11.84,6.58 12.00,6.71 12.15,6.85 12.25,7.02 12.36,7.19 12.40,7.39 12.44,7.59 12.42,7.79 12.40,8.00 12.31,8.18 12.23,8.36 12.09,8.51 11.95,8.66 11.77,8.75 11.59,8.85 11.39,8.88 11.19,8.91 10.99,8.88 10.79,8.84 10.61,8.75 10.43,8.65 10.29,8.50 10.15,8.36 10.07,8.17 9.98,7.99 9.96,7.79 9.94,7.58 9.98,7.39 10.03,7.19 10.13,7.01 10.24,6.84 10.39,6.71 10.55,6.58 10.74,6.50 10.93,6.43 11.13,6.42 11.33,6.41 11.53,6.46 11.72,6.52 11.89,6.63 12.06,6.75 12.18,6.91 12.30,7.07 12.37,7.26 12.43,7.46 12.43,7.66 12.43,7.86 12.36,8.05 12.30,8.25 12.17,8.41 12.05,8.57 11.88,8.68 11.72,8.80 11.52,8.85 11.32,8.90 11.32,8.90 11.32,8.90 9.57,9.07 7.81,9.24 6.89,9.40 5.96,9.55 5.00,9.71 4.03,9.86 3.16,9.94 2.29,10.01 1.16,10.00 0.04,10.00 -0.45,9.73 -0.95,9.47 -1.28,8.94 -1.61,8.42 -1.58,7.83 -1.56,7.25 -1.53,6.51 -1.50,5.77 -1.49,5.23 -1.48,4.70 -1.46,4.15 -1.45,3.60 -1.43,3.03 -1.42,2.47 -1.40,1.82 -1.38,1.17 -1.34,0.55 -1.30,-0.07 -1.27,-0.22 -1.24,-0.38 -1.18,-0.52 -1.12,-0.66 -1.02,-0.79 -0.92,-0.91 -0.80,-1.01 -0.68,-1.11 -0.53,-1.17 -0.39,-1.24 -0.24,-1.27 -0.08,-1.30 0.07,-1.29 0.22,-1.28 0.37,-1.24 0.52,-1.19 0.66,-1.11 0.79,-1.03 0.91,-0.92 1.02,-0.81 1.10,-0.67 1.18,-0.54 1.23,-0.39 1.28,-0.24 1.29,-0.08 1.30,0.07 1.30,0.07 L 1.30,0.07 Z"/></g><g transform="translate(225.86098155400927 112.27274826105753) rotate(0 -5.878031530490546 7.085359445850813)" stroke="none"><path fill="#1e1e1e" d="M 0,1.27 Q 0,1.27 -0.93,1.23 -1.87,1.18 -2.57,1.19 -3.27,1.19 -4.15,1.24 -5.02,1.29 -5.68,1.34 -6.34,1.40 -6.95,1.50 -7.56,1.60 -8.10,1.70 -8.64,1.80 -8.06,1.34 -7.49,0.88 -7.69,1.54 -7.90,2.21 -8.15,2.88 -8.39,3.55 -8.72,4.44 -9.04,5.33 -9.37,6.29 -9.69,7.26 -9.91,8.20 -10.13,9.14 -10.38,11.63 -10.63,14.13 -10.67,14.30 -10.71,14.48 -10.81,14.63 -10.90,14.79 -11.04,14.90 -11.18,15.02 -11.35,15.08 -11.52,15.14 -11.70,15.15 -11.89,15.16 -12.06,15.10 -12.23,15.05 -12.38,14.95 -12.53,14.84 -12.63,14.70 -12.74,14.55 -12.80,14.38 -12.85,14.20 -12.85,14.02 -12.84,13.84 -12.78,13.67 -12.72,13.50 -12.61,13.36 -12.50,13.22 -12.34,13.12 -12.19,13.02 -12.02,12.97 -11.84,12.93 -11.66,12.94 -11.48,12.96 -11.31,13.03 -11.15,13.10 -11.01,13.22 -10.87,13.34 -10.78,13.49 -10.69,13.65 -10.66,13.83 -10.62,14.01 -10.65,14.19 -10.67,14.37 -10.75,14.53 -10.83,14.69 -10.96,14.82 -11.08,14.95 -11.24,15.03 -11.41,15.11 -11.59,15.14 -11.76,15.16 -11.94,15.13 -12.12,15.10 -12.28,15.01 -12.44,14.92 -12.56,14.79 -12.68,14.65 -12.75,14.49 -12.83,14.32 -12.84,14.14 -12.86,13.96 -12.86,13.96 -12.86,13.96 -12.57,11.36 -12.29,8.76 -12.16,7.72 -12.03,6.68 -11.86,5.64 -11.69,4.60 -11.50,3.62 -11.31,2.65 -11.11,1.90 -10.91,1.15 -10.58,0.30 -10.24,-0.53 -9.47,-0.91 -8.70,-1.28 -8.09,-1.34 -7.48,-1.40 -6.91,-1.40 -6.34,-1.40 -5.68,-1.34 -5.02,-1.29 -4.15,-1.24 -3.27,-1.19 -2.57,-1.19 -1.87,-1.18 -0.93,-1.23 0,-1.27 0.15,-1.25 0.30,-1.24 0.44,-1.18 0.59,-1.13 0.72,-1.04 0.84,-0.95 0.94,-0.84 1.05,-0.72 1.12,-0.58 1.19,-0.45 1.23,-0.30 1.26,-0.15 1.26,0.00 1.26,0.15 1.23,0.30 1.19,0.45 1.12,0.58 1.05,0.72 0.94,0.84 0.84,0.95 0.72,1.04 0.59,1.13 0.44,1.18 0.30,1.24 0.15,1.25 -0.00,1.27 -0.00,1.27 L 0,1.27 Z"/></g><g transform="translate(196.31134914461018 116.58550038369407) rotate(0 4.3032183056451885 9.52948343818099)" stroke="none"><path fill="#1e1e1e" d="M -0.05,-1.27 Q -0.05,-1.27 0.76,-1.28 1.58,-1.30 2.18,-1.33 2.78,-1.36 3.42,-1.41 4.07,-1.46 4.61,-1.45 5.15,-1.44 5.79,-1.04 6.44,-0.63 7.04,-0.01 7.64,0.59 8.01,1.16 8.38,1.74 8.71,2.51 9.04,3.28 9.25,4.23 9.46,5.18 9.53,6.33 9.60,7.48 9.60,8.70 9.61,9.91 9.58,11.06 9.56,12.21 9.54,13.27 9.52,14.32 9.56,16.58 9.60,18.84 9.58,18.99 9.56,19.14 9.48,19.28 9.41,19.41 9.30,19.52 9.19,19.62 9.05,19.69 8.91,19.75 8.76,19.77 8.61,19.79 8.46,19.75 8.31,19.72 8.18,19.64 8.05,19.56 7.95,19.45 7.85,19.33 7.79,19.19 7.74,19.05 7.73,18.90 7.72,18.74 7.76,18.60 7.80,18.45 7.89,18.32 7.97,18.19 8.09,18.10 8.22,18.01 8.36,17.96 8.51,17.91 8.66,17.91 8.81,17.91 8.96,17.96 9.10,18.01 9.22,18.10 9.34,18.19 9.43,18.32 9.52,18.44 9.56,18.59 9.60,18.74 9.59,18.89 9.58,19.04 9.53,19.19 9.47,19.33 9.37,19.45 9.27,19.56 9.14,19.64 9.01,19.72 8.86,19.75 8.71,19.79 8.56,19.77 8.41,19.75 8.27,19.69 8.13,19.63 8.02,19.52 7.91,19.42 7.84,19.28 7.76,19.15 7.74,19.00 7.71,18.84 7.71,18.84 7.71,18.84 7.74,16.59 7.77,14.34 7.72,13.30 7.67,12.26 7.59,11.15 7.51,10.04 7.38,8.91 7.25,7.79 7.04,6.83 6.82,5.86 6.60,5.16 6.39,4.46 6.12,3.91 5.86,3.36 5.37,2.68 4.89,1.99 4.49,1.61 4.10,1.23 3.47,1.20 2.84,1.16 2.26,1.16 1.68,1.16 0.86,1.21 0.05,1.27 -0.10,1.26 -0.25,1.24 -0.39,1.20 -0.54,1.15 -0.67,1.07 -0.80,0.98 -0.91,0.87 -1.01,0.76 -1.09,0.63 -1.17,0.50 -1.21,0.35 -1.25,0.20 -1.26,0.05 -1.27,-0.10 -1.24,-0.25 -1.20,-0.40 -1.14,-0.54 -1.07,-0.68 -0.98,-0.79 -0.88,-0.91 -0.76,-1.01 -0.63,-1.10 -0.49,-1.16 -0.35,-1.22 -0.20,-1.24 -0.05,-1.27 -0.05,-1.27 L -0.05,-1.27 Z"/></g><g transform="translate(154.88601008833433 20.267578125) rotate(0 8.0712890625 9.9130859375)" stroke="none"><path fill="#1e1e1e" d="M -1.13,0.02 Q -1.13,0.02 -1.10,-1.60 -1.07,-3.23 -1.20,-4.41 -1.32,-5.58 -1.59,-6.45 -1.86,-7.32 -2.22,-7.88 -2.58,-8.43 -3.13,-8.72 -3.67,-9.00 -4.18,-8.83 -4.68,-8.66 -5.35,-7.40 -6.02,-6.14 -6.28,-4.47 -6.55,-2.80 -6.56,-0.56 -6.56,1.68 -6.13,3.98 -5.69,6.27 -3.90,9.81 -2.10,13.34 -0.59,15.83 0.91,18.31 2.16,20.06 3.42,21.80 4.60,23.17 5.79,24.54 6.82,25.54 7.86,26.55 8.65,27.15 9.43,27.75 10.25,28.13 11.06,28.52 11.84,28.73 12.61,28.94 13.27,29.00 13.92,29.06 14.77,28.81 15.63,28.57 16.61,28.02 17.60,27.46 18.38,26.87 19.15,26.27 19.88,25.55 20.61,24.84 21.33,23.82 22.05,22.80 22.68,21.45 23.31,20.10 23.73,18.53 24.15,16.95 24.38,15.17 24.61,13.39 24.71,11.70 24.81,10.00 24.82,8.31 24.83,6.62 24.73,4.92 24.63,3.22 24.43,1.93 24.23,0.63 23.82,-0.46 23.41,-1.56 22.78,-2.59 22.15,-3.62 21.35,-4.33 20.55,-5.04 19.63,-5.46 18.71,-5.88 17.95,-6.05 17.20,-6.21 16.62,-6.25 16.04,-6.28 15.17,-6.31 14.30,-6.34 12.60,-6.36 10.89,-6.38 8.42,-5.95 5.95,-5.53 3.64,-4.67 1.33,-3.80 -0.31,-2.85 -1.96,-1.89 -3.14,-0.98 -4.32,-0.06 -5.16,0.70 -5.99,1.48 -7.33,3.15 -8.67,4.83 -8.75,4.92 -8.84,5.01 -8.95,5.07 -9.06,5.13 -9.18,5.15 -9.30,5.17 -9.42,5.15 -9.55,5.14 -9.66,5.08 -9.77,5.02 -9.85,4.93 -9.94,4.85 -10.00,4.73 -10.05,4.62 -10.07,4.50 -10.08,4.37 -10.06,4.25 -10.03,4.13 -9.97,4.02 -9.91,3.92 -9.81,3.83 -9.72,3.75 -9.60,3.70 -9.49,3.66 -9.37,3.65 -9.24,3.64 -9.12,3.67 -9.00,3.70 -8.90,3.77 -8.79,3.84 -8.72,3.94 -8.64,4.03 -8.60,4.15 -8.56,4.27 -8.55,4.39 -8.55,4.52 -8.59,4.63 -8.63,4.75 -8.70,4.85 -8.77,4.95 -8.88,5.03 -8.98,5.10 -9.10,5.13 -9.22,5.17 -9.34,5.16 -9.47,5.16 -9.58,5.11 -9.70,5.07 -9.79,4.99 -9.89,4.91 -9.96,4.81 -10.02,4.70 -10.05,4.58 -10.08,4.46 -10.07,4.33 -10.06,4.21 -10.01,4.10 -9.96,3.98 -9.96,3.98 -9.96,3.98 -8.44,2.23 -6.93,0.47 -6.06,-0.34 -5.18,-1.17 -3.93,-2.15 -2.68,-3.12 -0.94,-4.15 0.80,-5.18 3.24,-6.12 5.68,-7.05 8.28,-7.52 10.88,-8.00 12.63,-8.04 14.38,-8.08 15.35,-8.03 16.31,-7.97 16.96,-7.81 17.61,-7.65 18.44,-7.36 19.27,-7.07 20.35,-6.55 21.42,-6.02 22.34,-5.17 23.27,-4.32 23.96,-3.17 24.65,-2.02 25.09,-0.79 25.53,0.43 25.74,1.78 25.95,3.14 26.06,4.88 26.17,6.63 26.16,8.35 26.15,10.08 26.05,11.82 25.95,13.56 25.71,15.43 25.48,17.30 25.03,19.00 24.58,20.69 23.89,22.15 23.21,23.62 22.43,24.74 21.65,25.86 20.87,26.66 20.08,27.47 19.23,28.14 18.37,28.81 17.23,29.48 16.08,30.15 14.90,30.47 13.71,30.79 12.92,30.62 12.13,30.45 11.27,30.14 10.41,29.82 9.50,29.34 8.59,28.85 7.75,28.20 6.90,27.54 5.82,26.50 4.73,25.46 3.49,24.06 2.25,22.65 0.95,20.87 -0.34,19.09 -1.91,16.57 -3.48,14.05 -5.38,10.33 -7.29,6.61 -7.80,4.16 -8.32,1.71 -8.38,-0.67 -8.45,-3.06 -8.23,-4.99 -8.00,-6.92 -7.54,-8.19 -7.07,-9.46 -6.34,-10.17 -5.61,-10.88 -4.84,-11.08 -4.07,-11.28 -3.43,-11.15 -2.79,-11.02 -2.27,-10.71 -1.76,-10.39 -1.35,-9.89 -0.94,-9.38 -0.55,-8.62 -0.17,-7.86 0.15,-6.86 0.48,-5.85 0.71,-4.56 0.95,-3.27 1.04,-1.64 1.13,-0.02 1.12,0.11 1.11,0.25 1.06,0.38 1.01,0.51 0.94,0.62 0.86,0.73 0.76,0.83 0.66,0.92 0.54,0.99 0.42,1.05 0.29,1.09 0.15,1.12 0.02,1.13 -0.11,1.13 -0.25,1.10 -0.38,1.07 -0.50,1.01 -0.63,0.94 -0.73,0.86 -0.83,0.77 -0.91,0.65 -0.99,0.54 -1.05,0.42 -1.10,0.29 -1.12,0.15 -1.13,0.02 -1.13,0.02 L -1.13,0.02 Z"/></g></svg>